<?xml version="1.0" encoding="utf-8"?>
<!-- Generator: Adobe Illustrator 18.0.0, SVG Export Plug-In . SVG Version: 6.00 Build 0)  -->
<!DOCTYPE svg PUBLIC "-//W3C//DTD SVG 1.1//EN" "http://www.w3.org/Graphics/SVG/1.1/DTD/svg11.dtd">
<svg version="1.1" id="Layer_1" xmlns="http://www.w3.org/2000/svg" xmlns:xlink="http://www.w3.org/1999/xlink" x="0px" y="0px"
	 viewBox="0 0 841.9 340.2" enable-background="new 0 0 841.9 340.2" xml:space="preserve">
<g>
	<g>
		<polygon fill="#EA5B0C" points="160.1,78.9 160.1,78.9 160.1,78.9 		"/>
		<path fill="#EA5B0C" d="M84.9,59.1c-16.5-0.4-27.7,2.4-30.3,3.2c3.7,17.3,20.2,92.7,26.8,111.8c-0.1-16.8,0.8-65.6,14.3-114.3
			C91.8,59.4,88.2,59.2,84.9,59.1z"/>
		<path fill="#BE1622" d="M100.1,60.3c-13.8,49.5-14.5,99.3-14.3,114.8c34.3-52.3,65.7-87,72.8-94.6
			C136.6,67.9,116.2,62.5,100.1,60.3z"/>
		<path fill="#EA5B0C" d="M84.8,54.8c3.7,0.1,7.7,0.3,12.2,0.8c4-13.6,9-27.2,15.2-39.9C80,32.3,59,53.3,54.7,57.8
			C58.9,56.8,69.6,54.5,84.8,54.8z"/>
		<path fill="#EA5B0C" d="M157.9,75.2c-5.9-9.9-23.2-37.7-41.7-57.9c-6.1,12.4-11,25.6-15,38.9C117,58.3,136.7,63.6,157.9,75.2z"/>
		<path fill="#EA5B0C" d="M15.9,251.8c0.2,1.5,0.4,3,0.6,4.6c37.9-4.7,66.2-36.6,67-74.1C80.2,217.8,52.4,247.4,15.9,251.8z"/>
	</g>
	<g>
		<path fill="#BE1622" d="M198.5,219.6c0,1.1-0.3,2.6-0.9,4.3c-1.4,4.2-4.4,7.6-8.8,10.1c-4.1,2.3-8.5,3.5-13.2,3.5
			c-8.1,0-14.1-3.3-18.2-9.9c-3.4-5.4-5.2-12.4-5.2-21c0-7.3,1.1-14.2,3.2-20.7c2.4-7.6,6-13.4,10.7-17.6c3.5-3.1,7.1-4.7,10.6-4.7
			c5.3,0,9.3,2.6,11.9,7.6c2.1,4,3.1,8.9,3.1,14.8c0,2.9-0.4,6.2-1.3,10c-1.2,5-2.7,7.4-4.5,7.4c-1.4,0-2.5-0.8-3.1-2.3
			c0.4-0.3,1.1-0.8,2-1.4c1.8-1.7,2.7-5.9,2.7-12.6c0-4.1-0.8-8-2.3-11.7c-1.9-4.8-4.6-7.2-8-7.2c-2.7,0-5.5,1.6-8.5,4.9
			c-2.2,2.4-4.1,5.2-5.7,8.4c-3.5,7.3-5.3,16.3-5.3,27c0,7.1,1.2,12.7,3.7,16.9c3.1,5.2,7.9,7.9,14.5,7.9c3.6,0,6.9-0.9,9.8-2.8
			c3-1.9,5.2-4.4,6.8-7.6c0.3-1,0.9-2.5,1.8-4.3c0.6-0.9,1.2-1.3,2.1-1.3C197.8,217.4,198.5,218.1,198.5,219.6z"/>
		<path fill="#BE1622" d="M234.9,215.2c0,5.9-1.3,11.1-3.9,15.5c-3.1,5.3-7.4,8-12.9,8c-5.6,0-9.8-2.2-12.5-6.5
			c-2.3-3.6-3.4-8.3-3.4-14.3c0-5.9,1.3-11.6,3.9-17.3c3.3-7,7.5-10.4,12.6-10.4c1.3,0,3.2,0.8,5.6,2.3
			C231.3,196.9,234.9,204.4,234.9,215.2z M229.9,215.1c0-4.4-0.6-8.4-1.8-11.9c-1.7-4.9-4.4-7.3-8-7.3c-4.1,0-7.4,2.7-9.7,8.2
			c-1.8,4.2-2.7,8.7-2.7,13.5c0,4.3,0.6,8,1.9,11c1.8,4.1,4.6,6.1,8.4,6.1c4.1,0,7.3-2.3,9.4-7C229.1,223.9,229.9,219.8,229.9,215.1
			z"/>
		<path fill="#BE1622" d="M269.8,196.9c0,1-0.1,2.3-0.2,4c-0.1,1.7-0.3,3.6-0.5,5.6c-0.2,2-0.3,4-0.5,5.9c-0.1,2-0.2,3.6-0.2,5
			c0,2.8,0,5,0.1,6.7c0,1.6,0.1,2.9,0.2,3.8c0.1,0.9,0.2,1.5,0.3,1.7c0.1,0.2,0.2,0.4,0.4,0.4c0.6,0,1.2-0.1,1.7-0.4
			c0.5-0.2,1.1-0.4,2-0.4c1.4,0,2.5,0.2,3.3,0.5c0.8,0.3,1.4,0.8,1.8,1.4c0.4,0.6,0.6,1.4,0.7,2.3c0.1,0.9,0.1,1.9,0.1,3
			c0,3.9-0.3,6.5-0.9,8c-0.6,1.4-1.8,2.2-3.5,2.2c-0.6,0-1.1-0.1-1.5-0.4c-0.4-0.3-0.7-0.7-0.7-1.2c0-0.3,0.1-0.7,0.2-1.3
			c0.1-0.6,0.3-1.2,0.5-1.9c0.2-0.7,0.4-1.5,0.5-2.3c0.1-0.8,0.2-1.6,0.2-2.3c0-1.4-0.2-2.2-0.5-2.5c-0.3-0.3-1.2-0.5-2.6-0.5
			c-1,0-1.8,0.3-2.5,1c-0.7,0.7-1.5,1-2.5,1c-1,0-1.8-0.5-2.2-1.4c-0.4-1-0.7-1.8-0.8-2.6c-1,1.4-2.4,2.7-4.3,3.9
			c-1.9,1.2-4.1,1.8-6.6,1.8c-0.8,0-1.7-0.2-2.7-0.7c-1-0.5-2-1.1-2.9-1.9c-0.9-0.8-1.8-1.6-2.5-2.4c-0.8-0.9-1.3-1.7-1.5-2.4
			c-1-2.5-1.4-6.9-1.4-13.1v-22.4c-0.1-0.1-0.1-0.3-0.1-0.7c0-1.6,1.2-2.4,3.7-2.4c2,0,2.9,1.1,2.9,3.3c0,1.7,0,3.9-0.1,6.6
			c-0.1,2.7-0.1,5.4-0.2,8.1c-0.1,2.7-0.1,5.1-0.2,7.3c-0.1,2.1-0.1,3.5-0.1,3.9c0,1.4,0.2,2.8,0.5,4.2c0.3,1.4,0.8,2.7,1.4,3.8
			c0.6,1.1,1.3,2.1,2.2,2.8c0.8,0.7,1.7,1.1,2.8,1.1c1.5,0,2.9-0.5,4.1-1.5c1.2-1,2.3-2.3,3.2-4c0.9-1.7,1.6-3.7,2.1-5.9
			c0.5-2.2,0.8-4.7,0.8-7.3v-13.5c0-0.6-0.2-1.3-0.6-2.4c-0.4-1-0.6-1.9-0.6-2.5c0-0.5,0.1-0.9,0.4-1.2c0.3-0.3,0.6-0.6,1-0.8
			c0.4-0.2,0.8-0.3,1.2-0.4c0.4-0.1,0.7-0.1,0.9-0.1C268.4,193.3,269.8,194.5,269.8,196.9z"/>
		<path fill="#BE1622" d="M282,227.5c0-3.3,0-6.6,0.1-10c0-3.3,0.1-6.5,0.2-9.6c0.1-3.1,0.2-5.8,0.4-8.3c0.1-2.5,0.3-4.5,0.6-6.1
			c0.1-0.3,0.3-0.6,0.7-1c0.4-0.4,0.8-0.8,1.3-1.1c0.5-0.3,1.1-0.6,1.7-0.8c0.6-0.2,1.1-0.4,1.5-0.4c0.6,0,1.2,0.2,1.9,0.7
			c0.7,0.5,1.1,0.9,1.1,1.3c0,0.5,0,0.9-0.1,1.4c-0.1,0.4-0.3,1.2-0.6,2.1c-0.3,0.8-0.7,2.3-1.2,4.5c-0.4,2.2-0.9,4.7-1.3,7.7
			c-0.4,3-0.8,6.3-1.1,9.9c-0.3,3.6-0.5,7.3-0.5,11c0,2.3,0.5,3.5,1.5,3.5c0.6,0,1.2-0.5,2.1-1.5c0.8-1,1.8-2.4,3-4.1
			c2.5-3.7,4.5-7.7,6.2-12s3.2-8.7,4.8-13.3c0.8-2.3,1.5-4.3,2.1-5.7c0.7-1.5,1.3-2.6,2-3.4c0.7-0.8,1.4-1.3,2.3-1.6
			c0.9-0.3,1.9-0.4,3-0.4c3.2,0,4.9,0.6,4.9,1.9l-0.4,0.9c-0.4,3.5-0.7,6.6-1,9.4c-0.2,2.7-0.4,5.3-0.5,7.6
			c-0.1,2.3-0.2,4.6-0.2,6.7c0,2.1-0.1,4.4-0.1,6.7c0,6.8,0.9,11.2,2.6,13.1c-0.3,0.3-0.8,0.6-1.3,0.7c-0.5,0.1-0.9,0.2-1.3,0.2
			c-1.2,0-2.2-0.4-3-1.3s-1.3-2-1.8-3.5c-0.4-1.4-0.7-3-0.9-4.7c-0.2-1.7-0.3-3.4-0.3-5c0-1.9,0.1-4,0.3-6.6c0.2-2.5,0.4-5,0.6-7.3
			c0.2-2.4,0.4-4.5,0.6-6.4c0.2-1.9,0.3-3,0.3-3.5c0-0.7-0.3-1-0.9-1c-3.3,8.7-6.4,15.8-9.2,21.3c-2.8,5.5-4.9,9.3-6.3,11.4
			c-1.4,2.2-2.7,3.7-3.6,4.4c-1,0.8-2.2,1.1-3.7,1.1c-2.2,0-3.8-0.8-4.8-2.3C282.5,232.9,282,230.6,282,227.5z"/>
		<path fill="#BE1622" d="M355.8,238.6c0,1-0.8,1.4-2.3,1.4c-1.7,0-2.7-0.7-3-2.1c-0.1-0.2-0.1-1.5-0.1-4c0-0.7-0.1-1.2-0.3-1.7
			c-3.9,2.8-8,4.2-12.5,4.2c-3.1,0-6.1-0.9-9-2.6c-3.3-1.9-5-4.3-5-7.2c0-2.8,2-5.6,5.9-8.3c3.6-2.5,6.9-3.7,9.9-3.7h10.2
			c0.4-0.4,0.6-1.1,0.6-2.2c0-4.6-0.4-8.1-1.1-10.4c-1.2-3.9-3.7-5.9-7.3-5.9c-2.6,0-5,1.7-7.2,5c-2,3-3,5.9-3,8.7
			c0,0.1,0,0.3,0,0.6c0,0.3,0,0.4,0,0.5c0,0.6-0.3,0.8-0.8,0.8c-0.7,0-1.4-0.4-2.3-1.2c-0.8-0.8-1.2-1.6-1.2-2.2
			c0-1.9,0.6-4.4,1.8-7.3c1.2-2.9,2.4-5.1,3.8-6.7c1.7-1.9,3.9-2.8,6.4-2.8c3.9,0,7.5,1.2,10.9,3.7c3.5,2.7,5.3,5.9,5.4,9.7
			L355.8,238.6z M350.3,222.1c0-2.8-2.1-4.1-6.4-4.1c-3.4,0-6.3,0.6-8.9,1.8c-3.2,1.5-4.9,3.8-4.9,6.8c0,1.9,0.9,3.3,2.6,4.3
			c1.4,0.9,3.2,1.3,5.2,1.3c3,0,5.8-1,8.4-2.9C349,227.4,350.3,225,350.3,222.1z"/>
		<path fill="#BE1622" d="M372.1,195.8c0-0.6,0.1-1,0.4-1.4c0.3-0.4,0.9-0.7,1.8-1c0.9-0.3,1.6-0.5,2.1-0.8c0.5-0.2,0.9-0.5,1.2-0.7
			c0.3-0.2,0.7-0.4,0.9-0.5c0.3-0.1,0.6-0.2,1-0.2c0.3,0,0.7,0,1.1,0.1c0.4,0.1,0.7,0.1,0.9,0.1c0.1,0,0.4,0,1.1-0.1
			c0.7-0.1,1.4-0.2,2.4-0.3c0.9-0.1,1.9-0.2,3-0.3c1.1-0.1,2.2-0.2,3.2-0.4c0.6-0.1,1.3-0.2,2.2-0.3c0.8-0.1,1.6-0.2,2.4-0.3
			c0.8-0.1,1.4-0.2,2-0.3c0.6-0.1,1-0.1,1.2-0.1c0.6,0,1.4,0.4,2.3,1.1c0.9,0.8,1.3,1.4,1.3,2.1c0,0.3-0.1,0.6-0.2,0.7
			s-0.3,0.3-0.5,0.5c-0.2,0.2-0.4,0.6-0.6,1c-0.2,0.5-0.3,1.3-0.5,2.4c-0.6,4.6-0.9,9-1.2,13.3c-0.2,4.2-0.4,8.3-0.4,12
			c0,3.3,0.2,6,0.7,8c0.5,2,1.1,3.5,1.9,4.7c-0.6,0.8-1.6,1.2-2.8,1.2c-1,0-1.9-0.2-2.6-0.5c-0.7-0.3-1.3-0.9-1.8-1.8
			c-0.4-0.9-0.8-2.2-1-3.9c-0.2-1.7-0.3-3.9-0.3-6.7c0-2.9,0.1-5.5,0.2-7.9c0.1-2.4,0.3-4.7,0.5-6.8s0.3-4.3,0.5-6.3
			c0.2-2,0.3-4.1,0.5-6.3c0-0.5-0.2-0.7-0.5-0.7c-1.1,0-2.4,0.1-3.8,0.2c-1.4,0.1-2.8,0.3-4.1,0.5c-1.3,0.2-2.4,0.4-3.3,0.7
			c-0.9,0.2-1.3,0.5-1.3,0.7c0.1,1.8,0.1,3.6,0.2,5.4c0,1.8,0.1,3.7,0.1,5.5c0,1.7,0,3.4-0.1,5.3c-0.1,1.9-0.2,3.8-0.4,5.7
			c-0.2,1.9-0.5,3.8-0.8,5.7c-0.3,1.9-0.7,3.6-1.2,5.2c-1,3.2-2.3,5.3-3.9,6.5c-1.7,1.1-3.6,1.7-5.8,1.7c-1,0-2.1-0.2-3.3-0.5
			c-1.2-0.3-2.4-0.8-3.5-1.5c-1.1-0.7-2-1.6-2.7-2.7c-0.7-1.1-1.1-2.4-1.1-4c0-1.9,0.8-2.8,2.4-2.8c1.1,0,1.9,0.4,2.3,1.3
			c0.4,0.9,0.9,1.9,1.2,3c0.4,1.1,0.8,2.1,1.4,3c0.6,0.9,1.4,1.3,2.7,1.3c1.1,0,2.1-0.5,3-1.4c0.9-0.9,1.7-2.4,2.3-4.5
			c0.6-2.1,1.1-4.7,1.4-8c0.3-3.2,0.5-7.2,0.5-11.8c0-1.7,0-3.4,0-5.2c0-1.7,0-3.4-0.1-5.2c0-0.5-0.1-0.8-0.4-0.8
			c-0.2-0.1-0.5-0.1-0.8-0.1c-0.2,0-0.4,0-0.6,0.1c-0.2,0.1-0.4,0.1-0.8,0.1c-0.6,0-1-0.4-1.4-1.2
			C372.3,197.3,372.1,196.5,372.1,195.8z"/>
		<path fill="#BE1622" d="M418.6,195.9c-0.5,2.5-1,5.1-1.5,7.7c-0.6,2.6-0.8,5.3-0.8,8.2c0,0.5,0.3,0.7,0.8,0.7c0.5,0,1.1,0,1.9-0.1
			c0.8,0,1.9-0.1,3.4-0.1c3,0,5.7,0.2,8,0.7c2.3,0.5,4.7,1.4,7.1,2.8c2.2,1.2,3.7,2.4,4.5,3.4c0.8,1,1.2,2.5,1.2,4.4
			c0,2-0.6,3.8-1.7,5.3c-1.1,1.5-2.5,2.8-4.2,3.8c-1.7,1-3.6,1.8-5.6,2.3c-2,0.5-3.9,0.8-5.8,0.8c-1,0-2.4-0.1-4.2-0.3
			c-1.8-0.2-3.4-0.4-5-0.8c-0.1,0-0.2,0.1-0.3,0.4c0,0.2-0.1,0.5-0.3,0.8c-0.2,0.3-0.4,0.5-0.7,0.8c-0.3,0.2-0.8,0.4-1.5,0.4
			c-0.6,0-1.1-0.2-1.4-0.7c-0.3-0.4-0.6-0.9-0.7-1.5c-0.2-0.6-0.3-1-0.4-1.5c-0.1-0.4-0.2-0.7-0.4-0.8c-1.2-0.5-1.9-1.1-1.9-2
			c0-0.7,0.2-1.1,0.6-1.3s0.8-0.3,1.4-0.4v-4.7c0-1.1,0-2.2,0-3.4c0-1.1,0.1-2.3,0.2-3.6c0-0.6-0.2-1.1-0.7-1.3
			c-0.5-0.3-0.7-0.7-0.7-1.2c0-0.6,0.2-1.1,0.6-1.4c0.4-0.3,0.6-0.8,0.6-1.2c0.3-4.2,0.7-8,1-11.5c0.3-3.4,0.7-6.3,1.1-8.6
			c0.2-1.5,1.3-2.3,3.3-2.3c1,0,1.7,0.3,2.3,0.8c0.6,0.5,0.8,1.2,0.8,2C419.5,193.5,419.2,194.6,418.6,195.9z M438.2,223.2
			c0-0.8-0.3-1.7-0.8-2.5c-0.6-0.9-1.5-1.6-2.7-2.3c-1.3-0.7-3-1.2-5.1-1.6c-2.1-0.4-4.7-0.6-7.8-0.6c-1.1,0-2.1,0-2.9,0.1
			c-0.9,0-1.6,0.1-2.1,0.2c-0.2,0-0.4,0.3-0.5,0.8c-0.1,0.5-0.2,1.1-0.3,1.8c0,0.7-0.1,1.4-0.1,2.1c0,0.7-0.1,1.3-0.1,1.8
			c0,2.5,0.1,5,0.3,7.5c1,0.6,2.5,1,4.4,1.3c1.9,0.3,3.7,0.5,5.3,0.5c1.4,0,2.9-0.2,4.4-0.7c1.5-0.5,2.8-1.1,4-2s2.2-1.8,2.9-2.9
			S438.2,224.3,438.2,223.2z"/>
		<path fill="#BE1622" d="M480.5,196.4c-0.4,0.3-0.8,0.8-1.1,1.2c-0.3,0.5-0.6,1.3-0.9,2.4c-0.2,1.1-0.4,2.6-0.6,4.5
			c-0.1,1.9-0.2,4.5-0.2,7.8c0,0.4,0.1,0.7,0.3,0.8c0.2,0.1,0.5,0.3,0.8,0.4c0.3,0.1,0.6,0.2,0.8,0.4c0.2,0.2,0.3,0.5,0.3,0.9
			c0,0.6-0.1,1-0.4,1.4c-0.3,0.4-0.5,0.7-0.8,0.9c-0.3,0.2-0.6,0.5-0.8,0.7c-0.2,0.2-0.3,0.5-0.3,0.8c0,1,0.1,2.5,0.3,4.3
			c0.2,1.8,0.5,3.6,0.7,5.4c0.2,1.8,0.5,3.3,0.7,4.5c0.2,1.2,0.3,1.8,0.3,1.5c0,0.6-0.2,1.3-0.7,1.9c-0.5,0.7-1.1,1-1.8,1
			c-0.8,0-1.5-0.4-2-1.3c-0.5-0.9-0.9-2-1.1-3.4c-0.3-1.4-0.5-2.8-0.6-4.4c-0.1-1.5-0.3-3-0.4-4.4c-0.1-1.4-0.3-2.5-0.4-3.4
			c-0.1-0.9-0.4-1.3-0.7-1.3c-0.8,0-2.2,0.2-4.2,0.7c-2,0.4-4.1,1-6.3,1.7c-2.1,0.7-4,1.3-5.7,2c-1.7,0.7-2.5,1.3-2.5,1.8
			c0,1,0,2,0.1,3c0,1,0.1,2,0.2,3c0.1,1,0.3,1.8,0.5,2.6c0.2,0.8,0.5,1.4,0.8,1.8c-0.2,1-0.7,1.6-1.5,1.9c-0.8,0.3-1.5,0.4-2.1,0.4
			c-0.6,0-1.1-0.9-1.5-2.6c-0.4-1.7-0.7-3.9-0.9-6.7c-0.2-2.7-0.3-5.7-0.4-9c0-3.3-0.1-6.5-0.1-9.7c0-5.9,0.3-10.3,0.9-13.3
			c0.6-3,1.8-4.5,3.7-4.5c0.8,0,1.5,0.3,2.3,0.9c0.8,0.6,1.2,1.3,1.2,2c0,0.4-0.1,0.9-0.4,1.6s-0.6,1.4-0.8,2.3
			c-0.2,0.8-0.4,1.8-0.6,3c-0.2,1.3-0.4,2.7-0.6,4.2s-0.4,3.2-0.5,4.8c-0.1,1.7-0.2,3.2-0.2,4.8c0,0.8,0,1.7,0.1,2.7
			c0.1,1,0.2,1.4,0.5,1.4c0.1,0,0.7-0.2,1.8-0.6c1.1-0.4,2.2-0.8,3.3-1.1c4.5-1.4,8-2.4,10.2-2.9c2.3-0.6,3.4-1.3,3.4-2.2v-4.4
			c0-10.8,1.3-16.2,3.8-16.2c0.8,0,1.5,0.1,2,0.4c0.6,0.3,1.1,0.6,1.4,1c0.4,0.4,0.7,0.8,0.8,1.2c0.2,0.4,0.3,0.7,0.3,0.9
			c0,0.3-0.1,0.4-0.2,0.5C480.8,196.1,480.7,196.2,480.5,196.4z"/>
		<path fill="#BE1622" d="M494.8,195.9c-0.5,2.5-1,5.1-1.6,7.7c-0.6,2.6-0.8,5.3-0.8,8.2c0,0.5,0.3,0.7,0.8,0.7c0.5,0,1.1,0,1.9-0.1
			c0.8,0,1.9-0.1,3.4-0.1c3,0,5.7,0.2,8,0.7c2.3,0.5,4.7,1.4,7.1,2.8c2.2,1.2,3.7,2.4,4.5,3.4c0.8,1,1.2,2.5,1.2,4.4
			c0,2-0.6,3.8-1.7,5.3c-1.1,1.5-2.5,2.8-4.2,3.8c-1.7,1-3.6,1.8-5.6,2.3s-3.9,0.8-5.8,0.8c-1,0-2.4-0.1-4.2-0.3
			c-1.8-0.2-3.4-0.4-5-0.8c-0.1,0-0.2,0.1-0.3,0.4c0,0.2-0.1,0.5-0.3,0.8c-0.2,0.3-0.4,0.5-0.7,0.8c-0.3,0.2-0.8,0.4-1.5,0.4
			c-0.6,0-1.1-0.2-1.4-0.7c-0.3-0.4-0.6-0.9-0.7-1.5c-0.2-0.6-0.3-1-0.4-1.5c-0.1-0.4-0.2-0.7-0.4-0.8c-1.2-0.5-1.9-1.1-1.9-2
			c0-0.7,0.2-1.1,0.6-1.3c0.4-0.2,0.8-0.3,1.4-0.4v-4.7c0-1.1,0-2.2,0-3.4c0-1.1,0.1-2.3,0.2-3.6c0-0.6-0.2-1.1-0.7-1.3
			c-0.5-0.3-0.7-0.7-0.7-1.2c0-0.6,0.2-1.1,0.6-1.4c0.4-0.3,0.6-0.8,0.6-1.2c0.3-4.2,0.7-8,1-11.5c0.3-3.4,0.7-6.3,1.1-8.6
			c0.2-1.5,1.3-2.3,3.3-2.3c1,0,1.7,0.3,2.3,0.8c0.6,0.5,0.8,1.2,0.8,2C495.7,193.5,495.4,194.6,494.8,195.9z M514.3,223.2
			c0-0.8-0.3-1.7-0.8-2.5c-0.6-0.9-1.5-1.6-2.7-2.3c-1.3-0.7-3-1.2-5.1-1.6c-2.1-0.4-4.7-0.6-7.8-0.6c-1.1,0-2.1,0-2.9,0.1
			c-0.9,0-1.6,0.1-2.1,0.2c-0.2,0-0.4,0.3-0.5,0.8c-0.1,0.5-0.2,1.1-0.3,1.8c0,0.7-0.1,1.4-0.1,2.1c0,0.7-0.1,1.3-0.1,1.8
			c0,2.5,0.1,5,0.3,7.5c1,0.6,2.5,1,4.4,1.3c1.9,0.3,3.7,0.5,5.3,0.5c1.4,0,2.9-0.2,4.4-0.7c1.5-0.5,2.8-1.1,4-2
			c1.2-0.8,2.2-1.8,2.9-2.9C514,225.5,514.3,224.3,514.3,223.2z M532,195.1c0,1.2-0.3,3.1-0.9,5.6c-0.6,2.5-0.9,4.3-0.9,5.6v22.8
			c0,1.5,0.3,3.6,1,6.2c-0.3,0.6-0.7,0.8-1.1,0.8c-3.4,0-5.1-1.6-5.1-4.9v-37.9c0.9-0.5,1.8-0.7,2.6-0.7c0.8,0,1.7,0.2,2.6,0.7
			C531.4,193.9,532,194.5,532,195.1z"/>
		<path fill="#BE1622" d="M539.3,227.5c0-3.3,0-6.6,0.1-10c0-3.3,0.1-6.5,0.2-9.6c0.1-3.1,0.2-5.8,0.4-8.3s0.3-4.5,0.6-6.1
			c0.1-0.3,0.3-0.6,0.7-1c0.4-0.4,0.8-0.8,1.3-1.1c0.5-0.3,1.1-0.6,1.7-0.8c0.6-0.2,1.1-0.4,1.5-0.4c0.6,0,1.2,0.2,1.9,0.7
			c0.7,0.5,1.1,0.9,1.1,1.3c0,0.5,0,0.9-0.1,1.4c-0.1,0.4-0.3,1.2-0.6,2.1c-0.3,0.8-0.7,2.3-1.2,4.5c-0.4,2.2-0.9,4.7-1.3,7.7
			c-0.4,3-0.8,6.3-1.1,9.9c-0.3,3.6-0.5,7.3-0.5,11c0,2.3,0.5,3.5,1.6,3.5c0.6,0,1.2-0.5,2.1-1.5c0.8-1,1.8-2.4,3-4.1
			c2.5-3.7,4.5-7.7,6.2-12s3.2-8.7,4.8-13.3c0.8-2.3,1.5-4.3,2.1-5.7c0.7-1.5,1.3-2.6,2-3.4c0.7-0.8,1.4-1.3,2.3-1.6
			c0.9-0.3,1.9-0.4,3-0.4c3.2,0,4.9,0.6,4.9,1.9l-0.4,0.9c-0.4,3.5-0.7,6.6-1,9.4c-0.2,2.7-0.4,5.3-0.5,7.6
			c-0.1,2.3-0.2,4.6-0.2,6.7c0,2.1-0.1,4.4-0.1,6.7c0,6.8,0.9,11.2,2.6,13.1c-0.3,0.3-0.8,0.6-1.3,0.7c-0.5,0.1-0.9,0.2-1.3,0.2
			c-1.2,0-2.2-0.4-3-1.3c-0.8-0.9-1.3-2-1.8-3.5c-0.4-1.4-0.7-3-0.9-4.7c-0.2-1.7-0.3-3.4-0.3-5c0-1.9,0.1-4,0.3-6.6
			c0.2-2.5,0.4-5,0.6-7.3c0.2-2.4,0.4-4.5,0.6-6.4s0.3-3,0.3-3.5c0-0.7-0.3-1-0.9-1c-3.3,8.7-6.4,15.8-9.2,21.3
			c-2.8,5.5-4.9,9.3-6.3,11.4c-1.4,2.2-2.7,3.7-3.6,4.4c-1,0.8-2.2,1.1-3.7,1.1c-2.2,0-3.8-0.8-4.8-2.3
			C539.8,232.9,539.3,230.6,539.3,227.5z M569.3,177.8c0,2.8-1.2,4.9-3.6,6.6c-2.4,1.6-5,2.4-7.8,2.4c-2.8,0-5.4-0.8-7.6-2.3
			c-2.5-1.7-3.7-4-3.7-6.7c0-1,0.5-1.6,1.6-1.6s1.6,0.5,1.6,1.6c0,3.3,2.7,5,8,5c2,0,3.8-0.3,5.4-1c2.1-0.9,3.2-2.2,3.2-3.9
			c0-1,0.5-1.6,1.6-1.6S569.3,176.7,569.3,177.8z"/>
		<path fill="#BE1622" d="M636.6,194.4c0,0.6-0.1,1.1-0.2,1.4s-0.3,0.6-0.5,0.8c-0.2,0.2-0.4,0.4-0.6,0.5c-0.2,0.1-0.3,0.3-0.4,0.6
			c-0.4,1.7-0.6,3.4-0.8,5.3c-0.2,1.9-0.3,3.8-0.4,5.6c-0.1,1.9-0.2,3.7-0.2,5.4c0,1.7,0,3.3,0,4.7c0,2.6,0.1,5,0.2,7.2
			c0.1,2.2,0.4,4.4,1,6.7c0.1,0.3,0.1,0.6,0.2,0.8c0.1,0.2,0.1,0.3,0.1,0.5c0,0.3-0.4,0.7-1.1,0.9c-0.7,0.3-1.4,0.4-2,0.4
			c-0.7,0-1.4-0.2-2-0.6c-0.6-0.4-1-1-1.1-1.9c-0.4-2-0.7-4.2-0.9-6.6c-0.2-2.4-0.3-4.9-0.3-7.6c0-3.5,0.1-7.3,0.3-11.2
			c0.2-4,0.4-7.7,0.7-11.2c0-0.5-0.5-0.8-1.5-0.9c-1-0.1-2.8-0.2-5.4-0.2c-3,0-5.6,0.4-7.9,1.1c-2.3,0.7-3.5,1.8-3.7,3.2
			c-0.2,1.4-0.4,2.8-0.5,4.1c-0.1,1.3-0.2,2.8-0.3,4.4c-0.1,1.7-0.1,3.6-0.2,5.8c0,2.2-0.1,5-0.1,8.3c0,2.4,0.1,4.8,0.2,7.3
			c0.1,2.4,0.4,4.9,1,7.3c-0.3,0.6-0.7,0.8-1.1,0.8c-3.2,0-4.8-1.6-5-4.9c-0.1-3-0.2-6.1-0.3-9.4c0-3.3-0.1-6.4-0.1-9.2
			c0-5.4,0.1-10.9,0.3-16.2c-0.3-0.5-0.4-1-0.5-1.5c0-0.5-0.1-1-0.1-1.6c0-0.8,0.2-1.3,0.7-1.6c0.5-0.3,1.5-0.5,3-0.5
			c1.9,0,4.6-0.3,8.3-0.9c3.7-0.6,8.5-0.9,14.7-0.9c2.5,0,4.2,0.3,5.1,0.9C636.1,192.4,636.6,193.2,636.6,194.4z"/>
		<path fill="#BE1622" d="M671.8,210.2c0,6.8-1,12.5-3,17.2c-2.7,6.4-6.9,9.6-12.7,9.6c-3.8,0-7.1-1.8-9.9-5.3
			c-0.5,0.2-0.7,2.3-0.7,6.4c0,9,0.4,15.3,1.3,19c0.1,0.3,0.4,1.2,1,2.5c0.6,1.3,0.9,2.1,0.9,2.4c0,1.1-0.7,1.7-2.1,1.7
			c-1.7,0-2.8-0.2-3.5-0.7c-0.7-0.5-1.2-2.1-1.7-4.8c-0.4-2.3-0.6-4.1-0.6-5.4v-26.3c0-2.4,0.1-5.6,0.4-9.7c0.2-4.8,0.4-8,0.5-9.7
			c0.1-1.9,0.1-4.3,0-7.2c0-3.8,0-6.2,0-7.3c0-4.8,1.2-7.1,3.7-7.1c1.2,0,1.9,0.4,1.9,1.3c0,1.7-0.1,4.2-0.4,7.5s-0.4,5.8-0.4,7.4
			h0.4c1.6-2.1,3.2-4.3,4.8-6.5c1.9-2.4,4.2-3.6,6.9-3.6c4.6,0,8.1,2.1,10.4,6.2C670.9,201.1,671.8,205.3,671.8,210.2z M666.7,210.6
			c0-3.7-0.4-6.8-1.1-9.4c-1.2-3.9-3.1-5.8-5.7-5.8c-1.9,0-4.3,1.7-7,5.1c-2.4,3-4.1,6-5.1,9.1c-0.8,2.3-1.4,5.8-1.9,10.3
			c-0.3,3.3-0.4,4.9-0.4,4.8c0,0.2,0.3,0.6,0.9,1c0.4,0.3,0.8,0.6,1.2,0.9c1.1,1.6,2.2,3.2,3.3,4.8c1.1,1.6,2.8,2.4,5.1,2.4
			c3.8,0,6.6-3.1,8.5-9.3C666,220.2,666.7,215.5,666.7,210.6z"/>
		<path fill="#BE1622" d="M709.8,215.2c0,5.9-1.3,11.1-3.9,15.5c-3.1,5.3-7.4,8-12.9,8c-5.6,0-9.8-2.2-12.5-6.5
			c-2.3-3.6-3.4-8.3-3.4-14.3c0-5.9,1.3-11.6,3.9-17.3c3.3-7,7.5-10.4,12.6-10.4c1.3,0,3.2,0.8,5.6,2.3
			C706.2,196.9,709.8,204.4,709.8,215.2z M704.8,215.1c0-4.4-0.6-8.4-1.8-11.9c-1.7-4.9-4.4-7.3-8-7.3c-4.1,0-7.4,2.7-9.7,8.2
			c-1.8,4.2-2.7,8.7-2.7,13.5c0,4.3,0.6,8,1.9,11c1.8,4.1,4.6,6.1,8.4,6.1c4.1,0,7.3-2.3,9.4-7C704,223.9,704.8,219.8,704.8,215.1z"
			/>
		<path fill="#BE1622" d="M745.2,225.3c0,3-2,5.8-6.1,8.2c-3.7,2.2-7.1,3.3-10.3,3.3c-9.2,0-13.8-5.9-13.8-17.6
			c0-5.2,0.9-10.7,2.8-16.6c2.5-7.7,5.6-11.6,9.5-11.6c3.3,0,6.9,1.7,10.9,5c3.9,3.3,5.9,6.7,5.9,10c0,4.3-1.7,8-5.2,11.2
			c-3.4,3.2-7.3,4.8-11.7,4.8c-0.4,0-1.3-0.3-2.6-1c-1.3-0.7-2.3-1-2.7-1c-0.9,0-1.3,0.3-1.3,0.8c0,7.9,2.6,11.9,7.9,11.9
			c2.7,0,5.2-0.9,7.4-2.7c1.4-1,2.9-2.7,4.5-4.9c1.3-1.7,2.2-2.6,2.6-2.6C744.4,222.4,745.2,223.4,745.2,225.3z M738.1,206.3
			c0-2.4-0.7-4.7-2.1-6.8c-1.4-2.1-3.2-3.2-5.5-3.2c-2.8,0-5,1.7-6.7,5.2c-1.4,2.9-2.2,5.9-2.2,9c0,2,0.6,3.7,1.9,5
			c1.3,1.3,2.9,2,4.9,2c2.8,0,5.2-1.2,7-3.6C737.2,211.8,738.1,209.2,738.1,206.3z"/>
		<path fill="#BE1622" d="M785.3,238c-1.8,1.4-3.2,2.1-4.1,2.1c-0.8,0-1.7-0.4-2.9-1.3c-1.2-0.9-2.4-2-3.7-3.3s-2.7-2.8-4-4.3
			c-1.4-1.5-2.6-3-3.8-4.4c-1.1-1.4-2.1-2.6-2.9-3.7c-0.8-1-1.3-1.7-1.5-1.9c-1.9-1.9-3.4-3.3-4.8-4.1c-1,0-1.5,0.6-1.7,1.8
			c-0.2,1.2-0.3,2.4-0.3,3.6c0,1.4,0,2.8,0,4.2c0,1.3,0,2.4,0.1,3.2c0.1,0.6,0.3,1.5,0.7,2.6c0.4,1.1,0.6,2,0.6,2.6
			c0,0.4-0.2,0.8-0.7,1.2c-0.5,0.4-1.1,0.6-1.8,0.6c-1.4,0-2.4-0.4-3.1-1.3c-0.7-0.9-1-2.5-1-5c0-4.2,0-7.8,0.1-10.9
			c0-3.1,0.1-5.7,0.1-8c0-2.3,0.1-4.2,0.1-5.8c0-1.6,0.1-3,0.1-4.2c0-0.8,0-1.4,0-1.9c0-0.5,0-0.9-0.1-1.3s-0.1-0.8-0.2-1.2
			c-0.1-0.4-0.2-0.9-0.3-1.6c-0.2-0.9-0.3-1.7-0.3-2.4c0-0.7,0.5-1.4,1.6-2.1c1.1-0.7,2-1,2.8-1c0.6,0,1.3,0.2,2,0.6
			c0.7,0.4,1.1,0.8,1.1,1.4c0,0.2-0.2,1.1-0.6,2.5c-0.4,1.5-0.6,3.8-0.6,6.9c0,2.1-0.1,3.9-0.2,5.3c-0.1,1.4-0.2,2.2-0.2,2.6
			c0,0.3,0.2,0.5,0.5,0.5c0.8-0.6,1.8-1.3,3-2.3c1.2-1,2.6-2.2,4.1-3.5c1.5-1.3,3-2.8,4.7-4.4c1.6-1.6,3.2-3.2,4.6-4.9
			c1.9-2.1,3.4-3.7,4.6-4.6c1.2-0.9,2-1.4,2.3-1.4c1,0,1.8,0.3,2.4,1c0.6,0.7,0.9,1.6,0.9,2.7c0,0.6,0,0.9-0.1,1.1
			c-1.3,0.9-2.9,2.1-4.9,3.7c-1.9,1.6-4.2,3.4-6.7,5.6c-5.9,5.2-8.8,8.6-8.8,10.2c0,0.3,0.4,1.1,1.2,2.1c0.8,1.1,1.8,2.3,3,3.7
			c1.2,1.4,2.5,2.9,3.9,4.4c1.4,1.5,2.7,2.9,3.8,4.2c2.1,2.4,4.1,4.4,6,5.9c1.9,1.5,3.5,2.7,5.1,3.4c0.2,0.1,0.3,0.3,0.3,0.6
			C785.6,237.7,785.5,237.8,785.3,238z"/>
		<path fill="#BE1622" d="M820.5,195.9c-0.5,0.3-1.8,0.7-3.9,1c-0.6,0.1-1.3,0.1-2.3,0.2c-1,0.1-2,0.1-3,0.2c-1,0.1-1.9,0.1-2.6,0.2
			c-0.8,0-1.2,0.1-1.2,0.2c-0.1,0.3-0.2,1.7-0.3,4.2c-0.1,2.4-0.2,6.6-0.2,12.6c0,3,0.1,5.4,0.2,7.4c0.1,2,0.3,3.7,0.4,5.3
			c0,0.3,0.1,0.8,0.2,1.4s0.2,1.3,0.4,2.2c0.1,0.8,0.3,1.5,0.4,2.2s0.2,1.2,0.2,1.7c0,0.6-0.3,1.1-1,1.7c-0.7,0.6-1.3,0.8-1.9,0.8
			c-1.4,0-2.5-1.4-3.3-4.2c-0.3-1-0.5-3-0.8-6c-0.2-3-0.4-7-0.4-12c0-4.9,0.1-8.6,0.2-11.2c0.1-2.6,0.2-4.4,0.3-5.3
			c-0.1-0.1-0.7-0.1-1.7,0c-1,0.1-2.2,0.2-3.5,0.3c-1.3,0.1-2.6,0.2-3.9,0.4c-1.3,0.1-2.3,0.2-3,0.3c-2.2,0.3-3.3-0.4-3.3-2.4
			c0-0.4,0.7-0.9,2-1.3c1.3-0.5,2.9-0.9,4.8-1.4c1.9-0.4,3.9-0.9,6.1-1.2c2.2-0.4,4.2-0.7,6-0.9c0.8-0.1,1.8-0.2,2.9-0.3
			c1.1-0.1,2.3-0.2,3.6-0.3c1.2-0.1,2.5-0.1,3.8-0.2c1.3-0.1,2.4-0.1,3.5-0.2c1.9,0,2.9,0.8,2.9,2.3
			C821.9,194.4,821.4,195.2,820.5,195.9z"/>
	</g>
</g>
<g>
	<g>
		<path fill="#EA5B0C" d="M362.1,286.3c0.3,4.2-0.6,10-2.7,17.5c-2.2,8.3-4.5,12.4-7,12.4c-2.9,0-5.6-3.1-8.1-9.4
			c-1.5-3.8-2.8-8.3-3.8-13.4c-0.5-2.4-0.7-4.9-0.7-7.6c0-0.4,0.2-0.8,0.6-1.2c0.4-0.4,0.8-0.6,1.2-0.6c0.6,0,1.5,0.5,2.7,1.5
			c-0.2,0.8-0.3,1.7-0.3,2.5c0,3,0.6,6.6,1.8,10.8c1.1,3.8,2.4,7.3,3.8,10.3c0.8,1.7,1.5,2.5,2.1,2.5c1.9,0,3.6-3.9,5-11.6
			c1.1-6,1.6-10.9,1.6-14.6c0-0.3,0.2-0.6,0.7-1c0.5-0.3,0.9-0.5,1.2-0.5C361.4,284,362.1,284.8,362.1,286.3z"/>
		<path fill="#EA5B0C" d="M391.7,318.5c-1.2,1-2.2,1.5-3,1.5c-1.1,0-3-1.5-5.6-4.6c-3.4-4-5.1-6.1-5.3-6.3c-0.6-0.5-1.6-1.6-3.1-3.5
			c-1.3-1.5-2.4-2.6-3.4-3.2l-1.3,1.8v7.3c0,0.4,0.2,1.1,0.5,1.9c0.3,0.8,0.5,1.4,0.5,1.9c0,0.3-0.2,0.6-0.6,0.8
			c-0.4,0.3-0.8,0.4-1.1,0.4c-2,0-2.9-1.1-2.9-3.2v-10.3c0-0.6,0.1-1.6,0.2-2.8c0.1-1.3,0.2-2.2,0.2-2.8v-20.3
			c0-2.9-0.1-5.2-0.3-6.9c0-0.2-0.1-0.8-0.3-1.6c-0.1-0.7-0.2-1.3-0.2-1.7c0-0.5,0.4-1,1.1-1.5c0.8-0.5,1.4-0.7,2-0.7
			c0.4,0,0.9,0.1,1.4,0.4c0.5,0.3,0.8,0.6,0.8,1c0,0-0.1,0.6-0.4,1.8c-0.4,1.3-0.5,3.9-0.5,7.7l-0.3,21.4l0.4,0.4
			c1.6-1,3.7-2.8,6.5-5.5c1.7-1.8,3.5-3.5,5.2-5.3c2.8-2.8,4.5-4.3,5-4.3c0.7,0,1.3,0.3,1.8,1c0.4,0.7,0.6,1.4,0.6,2.1l-0.1,0.4
			c-1.9,1.2-4.6,3.4-8.3,6.6c-4.2,3.7-6.3,6.1-6.3,7.3c0,0.4,0.7,1.5,2.2,3.3c2.3,2.7,4.6,5.4,6.9,8.1c3.1,3.4,5.7,5.6,7.9,6.6
			V318.5z"/>
		<path fill="#EA5B0C" d="M400.4,314.1c0,0.7-0.5,1.3-1.4,1.8c-0.7,0.4-1.5,0.6-2.3,0.6c-0.8,0-1.6-0.3-2.2-0.9
			c-0.6-0.6-1-1.3-1-2.1c0-1.7,0.9-2.5,2.6-2.5c1,0,1.9,0.3,2.9,0.8C399.9,312.4,400.4,313.2,400.4,314.1z"/>
		<path fill="#EA5B0C" d="M426.8,308c0,1.2-1,2.8-3,4.8c-2,2-3.7,3.2-4.9,3.5c-1.7,0.5-3.1,0.8-4.3,0.8c-3.6,0-6.3-1.3-8.3-3.9
			c-1.8-2.3-2.7-5.3-2.7-9c0-3.8,0.8-8,2.4-12.7c2-5.8,4.5-8.7,7.5-8.7c1.4,0,3.3,0.7,5.7,2.1c2.4,1.4,3.7,2.7,4,4
			c0.3,1.5,0.5,3,0.5,4.5c0,5.4-0.8,8.1-2.4,8.1c-0.4,0-0.9-0.1-1.4-0.4c-0.5-0.3-0.8-0.6-0.8-1c0-0.2,0.1-0.5,0.3-0.8
			c0.2-0.3,0.3-0.5,0.4-0.6c0.2-0.6,0.3-2.1,0.3-4.4c0-5.5-1.2-8.2-3.7-8.2c-2.7,0-4.9,2.5-6.6,7.5c-1.3,3.8-1.9,7.5-1.9,10.9
			c0,2.7,0.4,4.9,1.3,6.6c1.1,2.3,2.9,3.5,5.2,3.5c1.4,0,3.1-0.7,5-2.2c1.7-1.3,3-2.7,3.8-4.2c0.2-0.5,0.5-1.2,0.9-2.1
			c0.2-0.3,0.6-0.5,1-0.5c0.3,0,0.7,0.3,1.1,1C426.6,307.2,426.8,307.7,426.8,308z"/>
		<path fill="#EA5B0C" d="M453.9,301.2c0,4.2-0.9,7.9-2.8,11.1c-2.2,3.8-5.3,5.7-9.2,5.7c-4,0-7-1.5-8.9-4.6
			c-1.6-2.6-2.4-5.9-2.4-10.2c0-4.2,0.9-8.3,2.8-12.3c2.4-5,5.4-7.4,9-7.4c0.9,0,2.3,0.5,4,1.6C451.3,288.1,453.9,293.5,453.9,301.2
			z M450.3,301.1c0-3.1-0.4-6-1.3-8.5c-1.2-3.5-3.1-5.2-5.7-5.2c-2.9,0-5.3,1.9-6.9,5.8c-1.3,3-1.9,6.2-1.9,9.7
			c0,3.1,0.4,5.7,1.3,7.8c1.3,2.9,3.3,4.3,6,4.3c2.9,0,5.2-1.7,6.7-5C449.7,307.4,450.3,304.4,450.3,301.1z"/>
		<path fill="#EA5B0C" d="M492.4,316.2c-1,0.6-1.8,1-2.4,1c-0.3,0-0.8-0.2-1.5-0.5c0-0.8,0-2.1,0-4c0-1.7,0-3.1,0-4
			c0-15.2-1.6-22.7-4.7-22.7c-1.8,0-3.4,2.4-4.8,7.1c-1.1,3.8-1.6,7-1.6,9.6v7.4c0,0.4,0.1,0.9,0.3,1.7c0.2,0.7,0.3,1.2,0.3,1.6
			c0,0.4-0.3,0.8-0.8,1.2c-0.5,0.4-1,0.6-1.4,0.6c-0.4,0-0.9-0.3-1.5-0.9c-0.5-0.6-0.8-1.1-0.8-1.6v-14.8c0-1.6-0.3-3.6-0.8-6
			c-0.7-3-1.5-4.6-2.5-4.6c-0.5,0-1.4,0.7-2.4,2.1c-3.7,4.7-5.5,10.5-5.5,17.4c0,0.8,0.1,2.1,0.3,3.7c0.2,1.6,0.3,2.9,0.3,3.6
			c0,1.5-0.6,2.2-1.8,2.2c-0.6,0-1.1-0.2-1.5-0.7c-0.2-0.2-0.4-1.4-0.7-3.3c-0.2-1.8-0.4-3-0.4-3.6v-17.4c0-5,0.6-7.5,1.8-7.5
			c0.5,0,1,0.2,1.5,0.7c0.5,0.5,0.8,0.9,0.8,1.4c0,1-0.1,2.4-0.4,4.1c-0.3,2.2-0.5,3.5-0.5,4.1l0.4,0.4c0.9-2.1,1.9-4.2,2.8-6.3
			c1.3-2.7,2.9-4.1,4.7-4.1c2.6,0,4.8,2.8,6.6,8.3c0.5-0.6,1.1-1.8,1.8-3.7c0.7-1.9,1.4-3.2,2-4c0.9-1.2,2.1-1.8,3.5-1.8
			c1.3,0,2.8,0.9,4.4,2.7c3,3.2,4.5,9,4.5,17.4V316.2z"/>
		<path fill="#EA5B0C" d="M522.2,265.9c-0.6,1-1.4,2.5-2.4,4.6l-13.8,33.1c-3.7,8.9-6.7,13.3-8.8,13.3c-0.9,0-1.4-0.4-1.4-1.2
			c0-0.4,0.2-0.9,0.6-1.5c0.4-0.5,0.8-1,1.1-1.5c2.8-4.4,5.6-10.2,8.5-17.2c2.4-6,4.8-12,7.1-18c1.1-2.7,1.8-4.8,2.2-6.4
			c0-0.9,0.3-2.1,0.7-3.8c0.3-0.7,0.9-1.3,1.7-1.8c0.8-0.5,1.6-0.7,2.4-0.7C520.9,264.8,521.5,265.2,522.2,265.9z"/>
		<path fill="#EA5B0C" d="M548.1,311.4c0,1.7-1.3,3.2-3.9,4.4c-2.2,0.9-4.2,1.4-6.3,1.4c-1.3,0-2.8-0.3-4.6-1
			c-0.9-0.4-2.4-1.4-4.5-3.1c-2.3-1.8-3.4-3.1-3.4-3.8c0-1.5,0.9-2.2,2.7-2.1h0.4c0.1,1.5,1.7,3.1,4.7,4.8c2.8,1.6,5,2.4,6.6,2.4
			c2.2,0,3.2-0.7,3.2-2.2c0-0.9-1.3-2.1-4-3.7c-3.6-2.1-6.1-3.8-7.4-5.1c-2.7-2.6-4.1-5.6-4.1-9c0-2.6,0.7-5,2-7.3
			c1.5-2.8,3.4-4.1,5.7-4.1c1.7,0,3.7,0.8,6,2.3c2.4,1.5,3.7,3.1,4.1,4.7c0.4,1.3,0.6,2.9,0.6,4.6c0,1.9-0.3,4-1,6.3
			c-0.4,0.3-1,0.5-1.5,0.5c-0.3,0-0.9-0.1-1.6-0.4c-0.7-0.3-1.1-0.6-1.1-0.8c0,0.2,0.3-0.3,0.8-1.6c0.4-0.8,0.6-2.4,0.6-4.6
			c0-5.3-1.6-7.9-4.9-7.9c-1.7,0-3.1,1.2-4.1,3.5c-0.9,1.9-1.3,3.8-1.3,5.7c0,2.4,1.4,4.8,4.2,7c0.9,0.8,3.5,2.5,7.7,5.1
			C546.7,309,548.1,310.4,548.1,311.4z"/>
		<path fill="#EA5B0C" d="M574.5,301.2c0,4.2-0.9,7.9-2.8,11.1c-2.2,3.8-5.3,5.7-9.2,5.7c-4,0-7-1.5-8.9-4.6
			c-1.6-2.6-2.4-5.9-2.4-10.2c0-4.2,0.9-8.3,2.8-12.3c2.4-5,5.4-7.4,9-7.4c0.9,0,2.3,0.5,4,1.6C572,288.1,574.5,293.5,574.5,301.2z
			 M571,301.1c0-3.1-0.4-6-1.3-8.5c-1.2-3.5-3.1-5.2-5.7-5.2c-2.9,0-5.3,1.9-6.9,5.8c-1.3,3-1.9,6.2-1.9,9.7c0,3.1,0.4,5.7,1.3,7.8
			c1.3,2.9,3.3,4.3,6,4.3c2.9,0,5.2-1.7,6.7-5C570.4,307.4,571,304.4,571,301.1z"/>
		<path fill="#EA5B0C" d="M601.4,308c0,1.2-1,2.8-3,4.8c-2,2-3.7,3.2-4.9,3.5c-1.7,0.5-3.1,0.8-4.3,0.8c-3.6,0-6.3-1.3-8.3-3.9
			c-1.8-2.3-2.7-5.3-2.7-9c0-3.8,0.8-8,2.4-12.7c2-5.8,4.5-8.7,7.5-8.7c1.4,0,3.3,0.7,5.7,2.1c2.4,1.4,3.7,2.7,4,4
			c0.3,1.5,0.5,3,0.5,4.5c0,5.4-0.8,8.1-2.4,8.1c-0.4,0-0.9-0.1-1.4-0.4c-0.5-0.3-0.8-0.6-0.8-1c0-0.2,0.1-0.5,0.3-0.8
			c0.2-0.3,0.3-0.5,0.4-0.6c0.2-0.6,0.3-2.1,0.3-4.4c0-5.5-1.2-8.2-3.7-8.2c-2.7,0-4.9,2.5-6.6,7.5c-1.3,3.8-1.9,7.5-1.9,10.9
			c0,2.7,0.4,4.9,1.3,6.6c1.1,2.3,2.9,3.5,5.2,3.5c1.4,0,3.1-0.7,5-2.2c1.7-1.3,3-2.7,3.8-4.2c0.2-0.5,0.5-1.2,0.9-2.1
			c0.2-0.3,0.6-0.5,1-0.5c0.3,0,0.7,0.3,1.1,1C601.2,307.2,601.4,307.7,601.4,308z"/>
		<path fill="#EA5B0C" d="M626.6,297.6c0,4.9-0.7,8.9-2.1,12.2c-1.9,4.6-4.9,6.9-9.1,6.9c-2.7,0-5.1-1.3-7.1-3.8
			c-0.3,0.1-0.5,1.7-0.5,4.6c0,6.4,0.3,10.9,1,13.6c0,0.2,0.3,0.8,0.7,1.8c0.4,0.9,0.6,1.5,0.6,1.7c0,0.8-0.5,1.2-1.5,1.2
			c-1.2,0-2-0.2-2.5-0.5c-0.5-0.3-0.9-1.5-1.2-3.4c-0.3-1.6-0.4-2.9-0.4-3.8v-18.7c0-1.7,0.1-4,0.3-6.9c0.2-3.4,0.3-5.7,0.3-6.9
			c0-1.3,0-3,0-5.2c0-2.7,0-4.4,0-5.2c0-3.4,0.9-5.1,2.7-5.1c0.9,0,1.3,0.3,1.3,1c0,1.2-0.1,3-0.3,5.4s-0.3,4.1-0.3,5.3h0.3
			c1.1-1.5,2.3-3.1,3.4-4.6c1.3-1.7,3-2.6,4.9-2.6c3.3,0,5.8,1.5,7.4,4.4C625.9,291.1,626.6,294.1,626.6,297.6z M622.9,297.9
			c0-2.6-0.3-4.8-0.8-6.7c-0.8-2.8-2.2-4.1-4.1-4.1c-1.4,0-3,1.2-5,3.6c-1.7,2.1-2.9,4.3-3.6,6.5c-0.5,1.7-1,4.1-1.3,7.4
			c-0.2,2.4-0.3,3.5-0.3,3.4c0,0.1,0.2,0.4,0.7,0.7c0.3,0.2,0.6,0.4,0.9,0.7c0.8,1.1,1.6,2.3,2.4,3.4s2,1.7,3.6,1.7
			c2.7,0,4.7-2.2,6.1-6.6C622.4,304.7,622.9,301.4,622.9,297.9z"/>
		<path fill="#EA5B0C" d="M646.6,289.4c0,0.2,0,0.6-0.1,1.3c-0.6,1-1.3,1.5-1.8,1.5c-0.4,0-0.7-0.2-1-0.7c-0.1-3.1-1.4-4.6-3.8-4.6
			c-1.6,0-3.1,2.9-4.6,8.7c-0.6,2.1-0.9,4.9-0.9,8.5c0,4.5,0.1,7.3,0.4,8.3c0,0.1,0.2,0.5,0.4,0.9c0.2,0.5,0.3,0.8,0.3,1.1
			c0,1.1-0.7,1.6-2.2,1.6c-1.7,0-2.5-0.9-2.5-2.6c0-0.2,0.1-0.6,0.2-1.1c0.1-0.5,0.2-0.8,0.2-1.1c0-2.7-0.1-6.8-0.4-12.2
			c-0.2-5.4-0.4-9.5-0.4-12.2c0-1,0.2-1.6,0.5-1.8s1-0.3,2-0.3c1.2,0,1.9,0.4,2.1,1.3c0,1,0.1,1.9,0.1,2.9c1.3-2,2-3.1,2.2-3.3
			c1.1-1.2,2.2-1.8,3.4-1.8c0.9,0,1.8,0.3,2.7,0.8c0.5,0.3,1.2,1.1,2,2.3C646.2,288.1,646.6,289,646.6,289.4z"/>
		<path fill="#EA5B0C" d="M670.7,301.2c0,4.2-0.9,7.9-2.8,11.1c-2.2,3.8-5.3,5.7-9.2,5.7c-4,0-7-1.5-8.9-4.6
			c-1.6-2.6-2.4-5.9-2.4-10.2c0-4.2,0.9-8.3,2.8-12.3c2.4-5,5.4-7.4,9-7.4c0.9,0,2.3,0.5,4,1.6C668.2,288.1,670.7,293.5,670.7,301.2
			z M667.2,301.1c0-3.1-0.4-6-1.3-8.5c-1.2-3.5-3.1-5.2-5.7-5.2c-2.9,0-5.3,1.9-6.9,5.8c-1.3,3-1.9,6.2-1.9,9.7
			c0,3.1,0.4,5.7,1.3,7.8c1.3,2.9,3.3,4.3,6,4.3c2.9,0,5.2-1.7,6.7-5C666.6,307.4,667.2,304.4,667.2,301.1z"/>
		<path fill="#EA5B0C" d="M696,308.4c0,2.2-1.4,4.1-4.3,5.8c-2.6,1.6-5.1,2.4-7.4,2.4c-6.6,0-9.9-4.2-9.9-12.5c0-3.7,0.7-7.6,2-11.9
			c1.8-5.5,4-8.3,6.8-8.3c2.4,0,4.9,1.2,7.7,3.6c2.8,2.4,4.2,4.8,4.2,7.1c0,3-1.2,5.7-3.7,8c-2.5,2.3-5.2,3.4-8.3,3.4
			c-0.3,0-0.9-0.2-1.9-0.7c-1-0.5-1.6-0.7-2-0.7c-0.6,0-1,0.2-1,0.6c0,5.6,1.9,8.5,5.6,8.5c1.9,0,3.7-0.6,5.3-1.9
			c1-0.7,2.1-1.9,3.2-3.5c0.9-1.2,1.5-1.8,1.8-1.8C695.4,306.3,696,307,696,308.4z M690.9,294.8c0-1.7-0.5-3.3-1.5-4.8
			c-1-1.5-2.3-2.2-3.9-2.2c-2,0-3.6,1.2-4.8,3.7c-1,2.1-1.5,4.2-1.5,6.4c0,1.4,0.5,2.6,1.4,3.6s2.1,1.4,3.5,1.4c2,0,3.7-0.9,5-2.6
			C690.3,298.7,690.9,296.9,690.9,294.8z"/>
		<path fill="#EA5B0C" d="M725.1,318.5c-1.2,1-2.2,1.5-3,1.5c-1.1,0-3-1.5-5.6-4.6c-3.4-4-5.1-6.1-5.3-6.3c-0.6-0.5-1.6-1.6-3.1-3.5
			c-1.3-1.5-2.4-2.6-3.4-3.2l-1.3,1.8v7.3c0,0.4,0.2,1.1,0.5,1.9c0.3,0.8,0.5,1.4,0.5,1.9c0,0.3-0.2,0.6-0.6,0.8
			c-0.4,0.3-0.8,0.4-1.1,0.4c-2,0-2.9-1.1-2.9-3.2v-10.3c0-0.6,0.1-1.6,0.2-2.8c0.1-1.3,0.2-2.2,0.2-2.8v-20.3
			c0-2.9-0.1-5.2-0.3-6.9c0-0.2-0.1-0.8-0.3-1.6c-0.1-0.7-0.2-1.3-0.2-1.7c0-0.5,0.4-1,1.1-1.5c0.8-0.5,1.4-0.7,2-0.7
			c0.4,0,0.9,0.1,1.4,0.4c0.5,0.3,0.8,0.6,0.8,1c0,0-0.1,0.6-0.4,1.8c-0.4,1.3-0.5,3.9-0.5,7.7l-0.3,21.4l0.4,0.4
			c1.6-1,3.7-2.8,6.5-5.5c1.7-1.8,3.5-3.5,5.2-5.3c2.8-2.8,4.5-4.3,5-4.3c0.7,0,1.3,0.3,1.8,1c0.4,0.7,0.6,1.4,0.6,2.1l-0.1,0.4
			c-1.9,1.2-4.6,3.4-8.3,6.6c-4.2,3.7-6.3,6.1-6.3,7.3c0,0.4,0.7,1.5,2.2,3.3c2.3,2.7,4.6,5.4,6.9,8.1c3.1,3.4,5.7,5.6,7.9,6.6
			V318.5z"/>
		<path fill="#EA5B0C" d="M737.4,292.5c-0.4,0.3-1.3,0.5-2.8,0.7c-1.6,0.2-2.6,0.4-2.8,0.5c0,0.5-0.1,3.3-0.1,8.2
			c0,3.8,0,6.4,0.1,7.7c0,0.5,0.1,1.4,0.4,2.6c0.2,1.2,0.4,2.1,0.4,2.7c0,0.4-0.2,0.8-0.7,1.2c-0.5,0.4-0.9,0.6-1.3,0.6
			c-1,0-1.8-1-2.4-3c-0.4-1.5-0.6-2.9-0.6-4.2c0-6.9,0-12,0-15.3c-0.3-0.2-1.4-0.2-3.3,0c-1.5,0.2-2.3-0.4-2.3-1.7
			c0-1.9,2-2.7,6-2.6l1-13.3c0-0.1-0.1-0.4-0.2-0.7c-0.1-0.3-0.2-0.6-0.2-0.7c0-0.3,0.2-0.6,0.6-0.8c0.4-0.3,0.9-0.4,1.4-0.3
			c1.7,0.1,2.6,1,2.6,2.6c0,1.2-0.2,3.1-0.5,5.5c-0.3,2.5-0.5,4.3-0.5,5.5c0,0.6,0,1.2,0.1,1.7l4.1-0.2c1.4,0,2.1,0.5,2.1,1.6
			C738.3,291.4,738,292,737.4,292.5z"/>
		<path fill="#EA5B0C" d="M780.7,299c0,3.1-0.9,5.9-2.8,8.3c-4.5,5.9-10.6,8.8-18.3,8.8c-3.3,0-6.5-0.4-9.7-1.2
			c-1.6-0.4-3.3-1.4-5.2-2.9c-2.1-1.7-3.1-3.2-3.1-4.6c0-0.4,0.2-0.9,0.7-1.3s0.9-0.7,1.4-0.7c0.8,0,1.5,0.6,2.2,1.9
			c0.4,0.9,0.9,1.9,1.3,2.8c1.5,2.3,4.9,3.5,10.1,3.5c3.5,0,6.8-0.7,9.8-2.1c3.2-1.6,5.7-3.8,7.4-6.6c1.2-2.1,1.8-3.9,1.8-5.5
			c0-2.8-1.5-5.2-4.6-7.3c-2.8-1.8-5.6-2.7-8.6-2.7c-0.6,0-2.4,0.6-5.3,1.7c-3,1.2-5.3,1.7-7.2,1.7c-1.7,0-2.6-0.4-2.6-1.2
			c0-0.7,0.4-1.5,1.2-2.4s2.6-1.4,5.5-1.6c3.4-0.3,5.5-0.6,6.2-0.9c1.6-0.6,3.6-2.4,6-5.2c2.3-2.7,3.4-5.4,3.4-8
			c0-1.7-0.5-3.1-1.5-4.2c-1-1.1-2.4-1.6-4.1-1.6c-1.9,0-4.3,0.7-7.2,2c-2.9,1.4-4.9,2.8-6.2,4.2c-0.3,0.3-0.3,1-0.1,1.8
			c-0.9,0.9-1.8,1.8-2.7,2.7c-1.4,1.3-2.4,2-2.9,2c-0.4,0-0.9-0.2-1.5-0.6c-0.6-0.4-0.8-0.8-0.8-1.2c0-0.8,0.6-2,1.7-3.5
			c2.1-2.8,5-5.2,8.8-7.4c4-2.3,7.7-3.4,11-3.4c2.8,0,5,0.8,6.9,2.2c1.8,1.5,2.8,3.6,2.8,6.4c0,2.4-0.9,4.8-2.6,7.4
			c-1.4,2.3-3.2,4.2-5.4,6c0.1,0.2,1.4,0.6,4.1,1.3c2.8,0.8,5.1,1.8,6.6,3.1C779.5,293,780.7,295.6,780.7,299z"/>
		<path fill="#EA5B0C" d="M819.8,298.9c0,5.2-2.1,9.5-6.2,13.1c-3.9,3.4-8.5,5.2-13.8,5.2c-2.1,0-4.1-0.2-5.9-0.5
			c-1.8-0.3-3.8-1.1-6-2.2c-2.8-1.4-4.2-2.7-4.2-3.9c0-1.2,0.8-1.8,2.4-1.8c1.1,0,2.9,1,5.5,2.9c2.6,1.9,4.9,2.9,7.1,2.9
			c4.7,0,8.6-1.3,11.8-3.8c3.4-2.8,5.2-6.4,5.2-10.9c0-3.2-1.1-5.7-3.3-7.6c-2.2-1.9-4.9-2.8-8.1-2.8c-1.6,0-3.5,0.3-5.7,0.8
			c-2.4,0.6-4.1,1.3-5.2,2.1c0,0-0.5,0.5-1.5,1.4c-0.6,0.6-1.2,0.9-1.6,0.9c-0.6,0-1.4-0.3-2.4-1c0-0.5,0.1-1.2,0.4-2.1
			c0.3-0.9,0.4-1.7,0.4-2.2c0-0.8,0-2.1,0-3.8c0-1.7,0-3,0-3.9c0-6.5,0.8-11.5,2.3-14.9c0.3-0.1,0.7-0.2,1.3-0.2
			c0.8,0,1.4,0.2,1.8,0.7c0.4,0.5,0.8,0.7,1.2,0.7c0.1,0,1.5-0.2,4.2-0.5c5.3-0.6,8.9-1,10.7-1c3,0,4.6,0.9,4.6,2.6
			c0,0.6-0.3,1.6-1,2.8H813c-0.2,0-0.7-0.1-1.4-0.4c-0.7-0.2-1.1-0.4-1.3-0.4c-0.9-0.2-2.8-0.3-5.7-0.3c-0.9,0-2.8,0.2-5.7,0.6
			c-3.1,0.4-4.9,0.8-5.2,1.1c-1,0.9-1.5,5.1-1.5,12.7c0,1.6,0.1,2.9,0.2,3.8l0.1,0.1c0.2,0,1.3-0.4,3.4-1.3c2.8-1.1,5.9-1.7,9.4-1.7
			c4.2,0,7.6,1.1,10.2,3.2C818.3,291.6,819.8,294.8,819.8,298.9z"/>
	</g>
</g>
</svg>
