<?xml version="1.0" encoding="utf-8"?>
<!-- Generator: Adobe Illustrator 18.0.0, SVG Export Plug-In . SVG Version: 6.00 Build 0)  -->
<!DOCTYPE svg PUBLIC "-//W3C//DTD SVG 1.1//EN" "http://www.w3.org/Graphics/SVG/1.1/DTD/svg11.dtd">
<svg version="1.1" id="Layer_1" xmlns="http://www.w3.org/2000/svg" xmlns:xlink="http://www.w3.org/1999/xlink" x="0px" y="0px"
	 viewBox="0 0 538.6 170.1" enable-background="new 0 0 538.6 170.1" xml:space="preserve">
<g>
	<g>
		<polygon fill="#EA5B0C" points="97.7,44.7 97.7,44.7 97.7,44.7 		"/>
		<path fill="#EA5B0C" d="M47.9,31.6c-10.9-0.2-18.3,1.6-20.1,2.1c2.5,11.5,13.4,61.4,17.8,74.1c-0.1-11.1,0.6-43.5,9.5-75.8
			C52.4,31.8,50,31.7,47.9,31.6z"/>
		<path fill="#BE1622" d="M57.9,32.4c-9.2,32.8-9.6,65.9-9.5,76.1C71.2,73.9,92,50.9,96.7,45.8C82.1,37.5,68.6,33.8,57.9,32.4z"/>
		<path fill="#EA5B0C" d="M47.8,28.8c2.4,0,5.1,0.2,8.1,0.5c2.6-9,6-18,10.1-26.5c-21.3,11-35.2,24.9-38.1,27.9
			C30.6,30.1,37.7,28.6,47.8,28.8z"/>
		<path fill="#EA5B0C" d="M96.3,42.3c-3.9-6.5-15.4-25-27.6-38.4c-4.1,8.2-7.3,17-9.9,25.8C69.2,31.1,82.2,34.6,96.3,42.3z"/>
		<path fill="#EA5B0C" d="M2.1,159.4c0.2,1,0.3,2,0.4,3c25.1-3.1,43.9-24.3,44.5-49.2C44.7,136.9,26.3,156.4,2.1,159.4z"/>
	</g>
	<g>
		<path fill="#BE1622" d="M123.2,138.1c0,0.7-0.2,1.7-0.6,2.9c-1,2.8-2.9,5-5.8,6.7c-2.7,1.6-5.6,2.3-8.8,2.3
			c-5.3,0-9.4-2.2-12.1-6.6c-2.3-3.6-3.4-8.2-3.4-13.9c0-4.8,0.7-9.4,2.1-13.7c1.6-5,4-8.9,7.1-11.6c2.3-2.1,4.7-3.1,7.1-3.1
			c3.5,0,6.1,1.7,7.9,5.1c1.4,2.6,2.1,5.9,2.1,9.8c0,1.9-0.3,4.1-0.9,6.6c-0.8,3.3-1.8,4.9-3,4.9c-1,0-1.6-0.5-2.1-1.5
			c0.3-0.2,0.7-0.5,1.3-1c1.2-1.1,1.8-3.9,1.8-8.4c0-2.7-0.5-5.3-1.5-7.7c-1.3-3.2-3-4.8-5.3-4.8c-1.8,0-3.7,1.1-5.6,3.2
			c-1.5,1.6-2.7,3.4-3.8,5.6c-2.3,4.8-3.5,10.8-3.5,17.9c0,4.7,0.8,8.5,2.5,11.2c2.1,3.5,5.3,5.2,9.6,5.2c2.4,0,4.5-0.6,6.5-1.9
			c2-1.3,3.5-2.9,4.5-5c0.2-0.7,0.6-1.6,1.2-2.9c0.4-0.6,0.8-0.9,1.4-0.9C122.7,136.5,123.2,137,123.2,138.1z"/>
		<path fill="#BE1622" d="M147.3,135.1c0,3.9-0.9,7.4-2.6,10.3c-2.1,3.5-4.9,5.3-8.6,5.3c-3.7,0-6.5-1.4-8.3-4.3
			c-1.5-2.4-2.3-5.5-2.3-9.5c0-3.9,0.9-7.7,2.6-11.4c2.2-4.6,5-6.9,8.4-6.9c0.9,0,2.1,0.5,3.7,1.5C144.9,123,147.3,128,147.3,135.1z
			 M144,135c0-2.9-0.4-5.6-1.2-7.9c-1.1-3.2-2.9-4.9-5.3-4.9c-2.7,0-4.9,1.8-6.4,5.4c-1.2,2.8-1.8,5.8-1.8,9c0,2.9,0.4,5.3,1.2,7.3
			c1.2,2.7,3,4,5.6,4c2.7,0,4.8-1.6,6.2-4.7C143.4,140.9,144,138.1,144,135z"/>
		<path fill="#BE1622" d="M170.4,123c0,0.6,0,1.5-0.1,2.7c-0.1,1.1-0.2,2.4-0.3,3.7c-0.1,1.3-0.2,2.6-0.3,3.9
			c-0.1,1.3-0.1,2.4-0.1,3.3c0,1.9,0,3.3,0,4.4c0,1.1,0.1,1.9,0.1,2.5c0,0.6,0.1,1,0.2,1.1c0.1,0.2,0.1,0.2,0.2,0.2
			c0.4,0,0.8-0.1,1.1-0.2c0.3-0.2,0.8-0.2,1.3-0.2c0.9,0,1.6,0.1,2.2,0.3c0.5,0.2,0.9,0.5,1.2,1c0.2,0.4,0.4,0.9,0.4,1.5
			c0,0.6,0.1,1.3,0.1,2c0,2.6-0.2,4.3-0.6,5.3c-0.4,1-1.2,1.4-2.3,1.4c-0.4,0-0.7-0.1-1-0.3c-0.3-0.2-0.4-0.5-0.4-0.8
			c0-0.2,0-0.5,0.1-0.8c0.1-0.4,0.2-0.8,0.3-1.3c0.1-0.5,0.3-1,0.3-1.5c0.1-0.5,0.1-1,0.1-1.5c0-0.9-0.1-1.5-0.3-1.7
			c-0.2-0.2-0.8-0.3-1.7-0.3c-0.6,0-1.2,0.2-1.6,0.7c-0.5,0.4-1,0.7-1.6,0.7c-0.7,0-1.2-0.3-1.4-1c-0.3-0.6-0.5-1.2-0.5-1.7
			c-0.6,0.9-1.6,1.8-2.9,2.6c-1.3,0.8-2.7,1.2-4.4,1.2c-0.5,0-1.2-0.2-1.8-0.5c-0.7-0.3-1.3-0.7-1.9-1.2c-0.6-0.5-1.2-1-1.7-1.6
			c-0.5-0.6-0.8-1.1-1-1.6c-0.6-1.7-1-4.6-1-8.7v-14.9c0,0-0.1-0.2-0.1-0.5c0-1.1,0.8-1.6,2.4-1.6c1.3,0,1.9,0.7,1.9,2.2
			c0,1.1,0,2.6-0.1,4.4c0,1.8-0.1,3.6-0.1,5.4c0,1.8-0.1,3.4-0.1,4.8c0,1.4-0.1,2.3-0.1,2.6c0,0.9,0.1,1.8,0.3,2.8
			c0.2,0.9,0.5,1.8,1,2.5c0.4,0.8,0.9,1.4,1.4,1.9c0.5,0.5,1.2,0.7,1.8,0.7c1,0,1.9-0.3,2.7-1c0.8-0.7,1.5-1.5,2.1-2.7
			c0.6-1.1,1.1-2.4,1.4-3.9c0.3-1.5,0.5-3.1,0.5-4.8v-9c0-0.4-0.1-0.9-0.4-1.6c-0.3-0.7-0.4-1.2-0.4-1.6c0-0.3,0.1-0.6,0.3-0.8
			c0.2-0.2,0.4-0.4,0.7-0.5c0.3-0.1,0.5-0.2,0.8-0.2c0.3,0,0.4-0.1,0.6-0.1C169.5,120.6,170.4,121.4,170.4,123z"/>
		<path fill="#BE1622" d="M178.5,143.3c0-2.2,0-4.4,0-6.6c0-2.2,0.1-4.3,0.1-6.4c0.1-2,0.1-3.9,0.2-5.5c0.1-1.6,0.2-3,0.4-4
			c0-0.2,0.2-0.4,0.4-0.7c0.3-0.3,0.5-0.5,0.9-0.7c0.3-0.2,0.7-0.4,1.1-0.5c0.4-0.2,0.7-0.2,1-0.2c0.4,0,0.8,0.2,1.3,0.5
			c0.5,0.3,0.7,0.6,0.7,0.9c0,0.3,0,0.6-0.1,0.9c0,0.3-0.2,0.8-0.4,1.4c-0.2,0.6-0.5,1.5-0.8,3c-0.3,1.4-0.6,3.1-0.9,5.1
			c-0.3,2-0.5,4.2-0.8,6.6c-0.2,2.4-0.3,4.8-0.3,7.3c0,1.6,0.3,2.3,1,2.3c0.4,0,0.8-0.3,1.4-1c0.5-0.7,1.2-1.6,2-2.7
			c1.6-2.5,3-5.1,4.1-8c1.1-2.8,2.1-5.8,3.2-8.8c0.5-1.6,1-2.8,1.4-3.8c0.4-1,0.9-1.7,1.3-2.2c0.4-0.5,0.9-0.8,1.5-1
			c0.6-0.2,1.2-0.3,2-0.3c2.1,0,3.2,0.4,3.2,1.2l-0.3,0.6c-0.3,2.3-0.5,4.4-0.7,6.2c-0.2,1.8-0.3,3.5-0.3,5c-0.1,1.6-0.1,3-0.1,4.5
			c0,1.4,0,2.9,0,4.5c0,4.5,0.6,7.4,1.7,8.7c-0.2,0.2-0.5,0.4-0.9,0.5c-0.3,0.1-0.6,0.1-0.9,0.1c-0.8,0-1.5-0.3-2-0.9
			s-0.9-1.4-1.2-2.3c-0.3-0.9-0.5-2-0.6-3.1c-0.1-1.1-0.2-2.2-0.2-3.3c0-1.2,0.1-2.7,0.2-4.4c0.1-1.7,0.3-3.3,0.4-4.9
			c0.2-1.6,0.3-3,0.4-4.2c0.1-1.2,0.2-2,0.2-2.3c0-0.5-0.2-0.7-0.6-0.7c-2.2,5.8-4.2,10.5-6.1,14.1c-1.9,3.7-3.3,6.2-4.2,7.5
			c-1,1.5-1.8,2.4-2.4,2.9c-0.6,0.5-1.5,0.8-2.5,0.8c-1.5,0-2.5-0.5-3.2-1.5C178.9,146.8,178.5,145.3,178.5,143.3z"/>
		<path fill="#BE1622" d="M227.5,150.6c0,0.6-0.5,1-1.5,1c-1.1,0-1.8-0.5-2-1.4c0-0.1-0.1-1-0.1-2.7c0-0.5-0.1-0.8-0.2-1.1
			c-2.6,1.9-5.3,2.8-8.3,2.8c-2.1,0-4-0.6-6-1.7c-2.2-1.3-3.3-2.9-3.3-4.8c0-1.9,1.3-3.7,3.9-5.5c2.4-1.6,4.6-2.5,6.6-2.5h6.8
			c0.3-0.3,0.4-0.8,0.4-1.4c0-3.1-0.3-5.4-0.8-6.9c-0.8-2.6-2.4-3.9-4.9-3.9c-1.7,0-3.3,1.1-4.8,3.3c-1.3,2-2,3.9-2,5.8
			c0,0.1,0,0.2,0,0.4c0,0.2,0,0.3,0,0.3c0,0.4-0.2,0.5-0.5,0.5c-0.5,0-1-0.3-1.5-0.8c-0.5-0.5-0.8-1-0.8-1.4c0-1.3,0.4-2.9,1.2-4.8
			c0.8-1.9,1.6-3.4,2.5-4.4c1.1-1.2,2.6-1.9,4.2-1.9c2.6,0,5,0.8,7.2,2.5c2.3,1.8,3.5,3.9,3.6,6.4L227.5,150.6z M223.8,139.7
			c0-1.8-1.4-2.7-4.2-2.7c-2.2,0-4.2,0.4-5.9,1.2c-2.1,1-3.2,2.5-3.2,4.5c0,1.2,0.6,2.2,1.7,2.9c1,0.6,2.1,0.9,3.4,0.9
			c2,0,3.8-0.6,5.6-1.9C222.9,143.2,223.8,141.6,223.8,139.7z"/>
		<path fill="#BE1622" d="M238.3,122.2c0-0.4,0.1-0.7,0.3-0.9c0.2-0.3,0.6-0.5,1.2-0.7c0.6-0.2,1.1-0.4,1.4-0.5
			c0.3-0.2,0.6-0.3,0.8-0.4c0.2-0.1,0.4-0.2,0.6-0.3c0.2-0.1,0.4-0.1,0.7-0.1c0.2,0,0.5,0,0.7,0.1c0.3,0,0.4,0.1,0.6,0.1
			c0,0,0.3,0,0.7-0.1c0.4,0,1-0.1,1.6-0.2c0.6-0.1,1.3-0.1,2-0.2c0.7-0.1,1.4-0.1,2.1-0.2c0.4,0,0.9-0.1,1.4-0.2
			c0.5-0.1,1.1-0.1,1.6-0.2c0.5-0.1,0.9-0.1,1.3-0.2c0.4,0,0.7-0.1,0.8-0.1c0.4,0,0.9,0.3,1.5,0.8c0.6,0.5,0.9,1,0.9,1.4
			c0,0.2,0,0.4-0.1,0.4s-0.2,0.2-0.3,0.3c-0.1,0.1-0.3,0.4-0.4,0.7c-0.1,0.3-0.2,0.8-0.3,1.6c-0.4,3.1-0.6,6-0.8,8.8
			c-0.2,2.8-0.2,5.5-0.2,8c0,2.2,0.2,4,0.5,5.3c0.3,1.3,0.7,2.4,1.2,3.1c-0.4,0.5-1,0.8-1.9,0.8c-0.7,0-1.3-0.1-1.7-0.3
			c-0.5-0.2-0.9-0.6-1.2-1.2c-0.3-0.6-0.5-1.4-0.7-2.6c-0.1-1.1-0.2-2.6-0.2-4.4c0-1.9,0-3.7,0.1-5.2c0.1-1.6,0.2-3.1,0.3-4.5
			s0.2-2.8,0.3-4.2c0.1-1.3,0.2-2.7,0.3-4.1c0-0.3-0.1-0.5-0.3-0.5c-0.7,0-1.6,0-2.5,0.1c-1,0.1-1.9,0.2-2.7,0.3
			c-0.9,0.1-1.6,0.3-2.2,0.4c-0.6,0.2-0.9,0.3-0.9,0.4c0,1.2,0.1,2.4,0.1,3.6c0,1.2,0,2.4,0,3.7c0,1.1,0,2.3-0.1,3.5
			c0,1.3-0.1,2.5-0.3,3.8c-0.1,1.3-0.3,2.5-0.5,3.8c-0.2,1.2-0.5,2.4-0.8,3.4c-0.6,2.1-1.5,3.5-2.6,4.3c-1.1,0.8-2.4,1.1-3.8,1.1
			c-0.6,0-1.4-0.1-2.2-0.3c-0.8-0.2-1.6-0.5-2.3-1c-0.7-0.5-1.3-1.1-1.8-1.8c-0.5-0.7-0.7-1.6-0.7-2.7c0-1.2,0.5-1.9,1.6-1.9
			c0.7,0,1.2,0.3,1.5,0.9c0.3,0.6,0.6,1.3,0.8,2c0.3,0.7,0.6,1.4,0.9,2c0.4,0.6,1,0.9,1.8,0.9c0.7,0,1.4-0.3,2-0.9
			c0.6-0.6,1.1-1.6,1.5-3c0.4-1.4,0.7-3.1,1-5.3c0.2-2.1,0.3-4.8,0.3-7.8c0-1.1,0-2.3,0-3.4c0-1.1,0-2.3-0.1-3.4
			c0-0.3-0.1-0.5-0.2-0.5c-0.2,0-0.3-0.1-0.5-0.1c-0.1,0-0.3,0-0.4,0.1c-0.1,0-0.3,0.1-0.5,0.1c-0.4,0-0.7-0.3-0.9-0.8
			C238.4,123.2,238.3,122.7,238.3,122.2z"/>
		<path fill="#BE1622" d="M269.1,122.3c-0.3,1.7-0.7,3.4-1,5.1c-0.4,1.7-0.5,3.5-0.5,5.4c0,0.3,0.2,0.5,0.5,0.5c0.3,0,0.7,0,1.3,0
			c0.5,0,1.3,0,2.2,0c2,0,3.8,0.2,5.3,0.5c1.5,0.3,3.1,0.9,4.7,1.9c1.5,0.8,2.5,1.6,3,2.2c0.5,0.7,0.8,1.6,0.8,2.9
			c0,1.3-0.4,2.5-1.1,3.5c-0.7,1-1.7,1.8-2.8,2.5c-1.1,0.7-2.4,1.2-3.7,1.5c-1.3,0.3-2.6,0.5-3.8,0.5c-0.7,0-1.6-0.1-2.8-0.2
			c-1.2-0.1-2.3-0.3-3.3-0.5c-0.1,0-0.1,0.1-0.2,0.2c0,0.2-0.1,0.3-0.2,0.5c-0.1,0.2-0.3,0.4-0.5,0.5c-0.2,0.2-0.5,0.2-1,0.2
			c-0.4,0-0.7-0.1-0.9-0.4c-0.2-0.3-0.4-0.6-0.5-1c-0.1-0.4-0.2-0.7-0.2-1c0-0.3-0.1-0.5-0.3-0.5c-0.8-0.3-1.2-0.8-1.2-1.3
			c0-0.5,0.1-0.8,0.4-0.9c0.3-0.1,0.6-0.2,0.9-0.3v-3.1c0-0.7,0-1.5,0-2.2c0-0.8,0-1.5,0.1-2.4c0-0.4-0.2-0.7-0.5-0.9
			c-0.3-0.2-0.5-0.5-0.5-0.8c0-0.4,0.1-0.7,0.4-1c0.3-0.2,0.4-0.5,0.4-0.8c0.2-2.8,0.4-5.3,0.7-7.6c0.2-2.3,0.4-4.2,0.7-5.7
			c0.1-1,0.9-1.5,2.2-1.5c0.6,0,1.1,0.2,1.5,0.5c0.4,0.3,0.5,0.8,0.5,1.3C269.7,120.7,269.5,121.5,269.1,122.3z M282.1,140.4
			c0-0.5-0.2-1.1-0.5-1.7c-0.4-0.6-1-1.1-1.8-1.5c-0.8-0.4-2-0.8-3.4-1.1c-1.4-0.3-3.1-0.4-5.2-0.4c-0.7,0-1.4,0-2,0
			c-0.6,0-1,0.1-1.4,0.1c-0.1,0-0.3,0.2-0.3,0.5c-0.1,0.3-0.1,0.7-0.2,1.2c0,0.5,0,0.9-0.1,1.4c0,0.5,0,0.9,0,1.2
			c0,1.6,0.1,3.3,0.2,5c0.7,0.4,1.7,0.7,2.9,0.9c1.3,0.2,2.4,0.3,3.5,0.3c1,0,1.9-0.2,2.9-0.5c1-0.3,1.9-0.8,2.7-1.3
			s1.4-1.2,1.9-1.9C281.8,141.9,282.1,141.2,282.1,140.4z"/>
		<path fill="#BE1622" d="M310.2,122.6c-0.3,0.2-0.5,0.5-0.8,0.8c-0.2,0.3-0.4,0.8-0.6,1.6c-0.2,0.7-0.3,1.7-0.4,3
			c-0.1,1.3-0.1,3-0.1,5.1c0,0.3,0.1,0.5,0.2,0.5c0.2,0.1,0.3,0.2,0.5,0.2c0.2,0.1,0.4,0.2,0.5,0.3c0.2,0.1,0.2,0.3,0.2,0.6
			c0,0.4-0.1,0.7-0.3,0.9c-0.2,0.3-0.4,0.5-0.6,0.6c-0.2,0.2-0.4,0.3-0.5,0.5c-0.2,0.2-0.2,0.3-0.2,0.5c0,0.7,0.1,1.6,0.2,2.8
			c0.2,1.2,0.3,2.4,0.5,3.6c0.2,1.2,0.3,2.2,0.5,3c0.2,0.8,0.2,1.2,0.2,1c0,0.4-0.2,0.8-0.5,1.3c-0.3,0.4-0.7,0.7-1.2,0.7
			c-0.5,0-1-0.3-1.3-0.9c-0.3-0.6-0.6-1.3-0.8-2.3c-0.2-0.9-0.3-1.9-0.4-2.9c-0.1-1-0.2-2-0.3-2.9c-0.1-0.9-0.2-1.7-0.3-2.3
			c-0.1-0.6-0.3-0.9-0.5-0.9c-0.5,0-1.4,0.1-2.8,0.4c-1.3,0.3-2.7,0.7-4.1,1.1c-1.4,0.4-2.7,0.9-3.8,1.3c-1.1,0.5-1.6,0.8-1.6,1.2
			c0,0.6,0,1.3,0,2c0,0.7,0.1,1.3,0.1,2c0.1,0.6,0.2,1.2,0.3,1.7c0.1,0.5,0.3,0.9,0.5,1.2c-0.1,0.6-0.5,1.1-1,1.2
			c-0.5,0.2-1,0.3-1.4,0.3c-0.4,0-0.7-0.6-1-1.7c-0.3-1.1-0.4-2.6-0.6-4.4c-0.1-1.8-0.2-3.8-0.2-6c0-2.2,0-4.3,0-6.4
			c0-3.9,0.2-6.8,0.6-8.8c0.4-2,1.2-3,2.4-3c0.5,0,1,0.2,1.5,0.6c0.5,0.4,0.8,0.8,0.8,1.3c0,0.3-0.1,0.6-0.3,1s-0.4,0.9-0.5,1.5
			c-0.1,0.5-0.3,1.2-0.4,2c-0.1,0.8-0.3,1.8-0.4,2.8c-0.1,1-0.2,2.1-0.3,3.2c-0.1,1.1-0.1,2.1-0.1,3.2c0,0.5,0,1.1,0.1,1.8
			c0,0.6,0.2,1,0.3,1c0.1,0,0.5-0.1,1.2-0.4c0.7-0.3,1.4-0.5,2.2-0.8c3-0.9,5.3-1.6,6.8-2c1.5-0.4,2.3-0.9,2.3-1.5v-2.9
			c0-7.2,0.8-10.8,2.5-10.8c0.5,0,1,0.1,1.4,0.3c0.4,0.2,0.7,0.4,1,0.7c0.2,0.3,0.4,0.5,0.5,0.8c0.1,0.3,0.2,0.5,0.2,0.6
			c0,0.2,0,0.3-0.1,0.3C310.3,122.5,310.3,122.5,310.2,122.6z"/>
		<path fill="#BE1622" d="M319.6,122.3c-0.3,1.7-0.7,3.4-1,5.1c-0.4,1.7-0.5,3.5-0.5,5.4c0,0.3,0.2,0.5,0.5,0.5c0.3,0,0.7,0,1.3,0
			c0.5,0,1.3,0,2.2,0c2,0,3.8,0.2,5.3,0.5c1.5,0.3,3.1,0.9,4.7,1.9c1.5,0.8,2.5,1.6,3,2.2c0.5,0.7,0.8,1.6,0.8,2.9
			c0,1.3-0.4,2.5-1.1,3.5c-0.7,1-1.7,1.8-2.8,2.5c-1.1,0.7-2.4,1.2-3.7,1.5c-1.3,0.3-2.6,0.5-3.8,0.5c-0.7,0-1.6-0.1-2.8-0.2
			c-1.2-0.1-2.3-0.3-3.3-0.5c-0.1,0-0.1,0.1-0.2,0.2c0,0.2-0.1,0.3-0.2,0.5c-0.1,0.2-0.3,0.4-0.5,0.5c-0.2,0.2-0.5,0.2-1,0.2
			c-0.4,0-0.7-0.1-0.9-0.4c-0.2-0.3-0.4-0.6-0.5-1c-0.1-0.4-0.2-0.7-0.2-1c0-0.3-0.1-0.5-0.3-0.5c-0.8-0.3-1.2-0.8-1.2-1.3
			c0-0.5,0.1-0.8,0.4-0.9c0.2-0.1,0.6-0.2,0.9-0.3v-3.1c0-0.7,0-1.5,0-2.2c0-0.8,0-1.5,0.1-2.4c0-0.4-0.2-0.7-0.5-0.9
			c-0.3-0.2-0.5-0.5-0.5-0.8c0-0.4,0.1-0.7,0.4-1c0.3-0.2,0.4-0.5,0.4-0.8c0.2-2.8,0.4-5.3,0.7-7.6c0.2-2.3,0.4-4.2,0.7-5.7
			c0.1-1,0.9-1.5,2.2-1.5c0.6,0,1.1,0.2,1.5,0.5c0.4,0.3,0.5,0.8,0.5,1.3C320.2,120.7,320,121.5,319.6,122.3z M332.6,140.4
			c0-0.5-0.2-1.1-0.5-1.7c-0.4-0.6-1-1.1-1.8-1.5c-0.8-0.4-2-0.8-3.4-1.1c-1.4-0.3-3.1-0.4-5.2-0.4c-0.7,0-1.4,0-2,0
			c-0.6,0-1,0.1-1.4,0.1c-0.1,0-0.3,0.2-0.3,0.5c-0.1,0.3-0.1,0.7-0.2,1.2c0,0.5,0,0.9-0.1,1.4c0,0.5,0,0.9,0,1.2
			c0,1.6,0.1,3.3,0.2,5c0.7,0.4,1.7,0.7,2.9,0.9c1.3,0.2,2.4,0.3,3.5,0.3c1,0,1.9-0.2,2.9-0.5c1-0.3,1.9-0.8,2.7-1.3
			c0.8-0.5,1.4-1.2,1.9-1.9C332.3,141.9,332.6,141.2,332.6,140.4z M344.3,121.8c0,0.8-0.2,2.1-0.6,3.7c-0.4,1.6-0.6,2.9-0.6,3.7
			v15.1c0,1,0.2,2.4,0.7,4.1c-0.2,0.4-0.4,0.5-0.8,0.5c-2.2,0-3.4-1.1-3.4-3.2v-25.1c0.6-0.3,1.2-0.5,1.7-0.5c0.5,0,1.1,0.2,1.7,0.5
			C343.9,121,344.3,121.4,344.3,121.8z"/>
		<path fill="#BE1622" d="M349.2,143.3c0-2.2,0-4.4,0-6.6c0-2.2,0.1-4.3,0.1-6.4c0.1-2,0.1-3.9,0.2-5.5c0.1-1.6,0.2-3,0.4-4
			c0-0.2,0.2-0.4,0.4-0.7c0.2-0.3,0.5-0.5,0.9-0.7c0.3-0.2,0.7-0.4,1.1-0.5c0.4-0.2,0.7-0.2,1-0.2c0.4,0,0.8,0.2,1.3,0.5
			c0.5,0.3,0.7,0.6,0.7,0.9c0,0.3,0,0.6-0.1,0.9c0,0.3-0.2,0.8-0.4,1.4c-0.2,0.6-0.5,1.5-0.8,3c-0.3,1.4-0.6,3.1-0.9,5.1
			c-0.3,2-0.5,4.2-0.8,6.6c-0.2,2.4-0.3,4.8-0.3,7.3c0,1.6,0.3,2.3,1,2.3c0.4,0,0.8-0.3,1.4-1c0.5-0.7,1.2-1.6,2-2.7
			c1.6-2.5,3-5.1,4.1-8s2.1-5.8,3.2-8.8c0.5-1.6,1-2.8,1.4-3.8c0.4-1,0.9-1.7,1.3-2.2c0.4-0.5,0.9-0.8,1.5-1c0.6-0.2,1.2-0.3,2-0.3
			c2.1,0,3.2,0.4,3.2,1.2l-0.3,0.6c-0.3,2.3-0.5,4.4-0.7,6.2c-0.2,1.8-0.3,3.5-0.3,5c-0.1,1.6-0.1,3-0.1,4.5c0,1.4,0,2.9,0,4.5
			c0,4.5,0.6,7.4,1.7,8.7c-0.2,0.2-0.5,0.4-0.9,0.5c-0.3,0.1-0.6,0.1-0.9,0.1c-0.8,0-1.5-0.3-2-0.9c-0.5-0.6-0.9-1.4-1.2-2.3
			c-0.3-0.9-0.5-2-0.6-3.1c-0.1-1.1-0.2-2.2-0.2-3.3c0-1.2,0.1-2.7,0.2-4.4c0.1-1.7,0.3-3.3,0.4-4.9c0.2-1.6,0.3-3,0.4-4.2
			c0.1-1.2,0.2-2,0.2-2.3c0-0.5-0.2-0.7-0.6-0.7c-2.2,5.8-4.2,10.5-6.1,14.1c-1.9,3.7-3.3,6.2-4.2,7.5c-1,1.5-1.8,2.4-2.4,2.9
			c-0.6,0.5-1.5,0.8-2.5,0.8c-1.5,0-2.5-0.5-3.2-1.5C349.5,146.8,349.2,145.3,349.2,143.3z M369,110.3c0,1.8-0.8,3.3-2.4,4.4
			c-1.6,1.1-3.3,1.6-5.2,1.6c-1.9,0-3.6-0.5-5.1-1.5c-1.6-1.1-2.5-2.6-2.5-4.5c0-0.7,0.3-1,1-1s1,0.3,1,1c0,2.2,1.8,3.3,5.3,3.3
			c1.3,0,2.5-0.2,3.6-0.7c1.4-0.6,2.1-1.5,2.1-2.6c0-0.7,0.3-1,1-1C368.7,109.3,369,109.6,369,110.3z"/>
		<path fill="#BE1622" d="M413.6,121.3c0,0.4,0,0.7-0.1,0.9c-0.1,0.2-0.2,0.4-0.4,0.5c-0.1,0.1-0.3,0.3-0.4,0.3
			c-0.1,0.1-0.2,0.2-0.2,0.4c-0.2,1.1-0.4,2.3-0.5,3.5c-0.1,1.3-0.2,2.5-0.3,3.7c-0.1,1.2-0.1,2.4-0.1,3.6c0,1.1,0,2.2,0,3.1
			c0,1.7,0,3.3,0.1,4.8c0.1,1.4,0.3,2.9,0.7,4.4c0,0.2,0.1,0.4,0.1,0.5c0,0.1,0.1,0.2,0.1,0.3c0,0.2-0.2,0.4-0.7,0.6
			c-0.5,0.2-0.9,0.3-1.3,0.3c-0.5,0-0.9-0.1-1.3-0.4c-0.4-0.3-0.7-0.7-0.7-1.3c-0.3-1.3-0.5-2.8-0.6-4.4c-0.1-1.6-0.2-3.3-0.2-5
			c0-2.3,0.1-4.8,0.2-7.4c0.1-2.6,0.3-5.1,0.4-7.4c0-0.3-0.3-0.5-1-0.6c-0.6-0.1-1.8-0.1-3.6-0.1c-2,0-3.7,0.2-5.2,0.7
			c-1.5,0.5-2.3,1.2-2.5,2.1c-0.1,1-0.3,1.9-0.3,2.7c-0.1,0.9-0.2,1.9-0.2,2.9c0,1.1-0.1,2.4-0.1,3.9c0,1.5,0,3.3,0,5.5
			c0,1.6,0,3.2,0.1,4.8c0.1,1.6,0.3,3.2,0.7,4.8c-0.2,0.4-0.5,0.5-0.8,0.5c-2.1,0-3.2-1.1-3.3-3.2c-0.1-2-0.1-4-0.2-6.2
			c0-2.2,0-4.2,0-6.1c0-3.6,0.1-7.2,0.2-10.8c-0.2-0.3-0.3-0.7-0.3-1c0-0.3,0-0.7,0-1.1c0-0.5,0.2-0.9,0.5-1.1c0.3-0.2,1-0.3,2-0.3
			c1.2,0,3.1-0.2,5.5-0.6c2.4-0.4,5.7-0.6,9.7-0.6c1.6,0,2.8,0.2,3.4,0.6C413.3,120,413.6,120.6,413.6,121.3z"/>
		<path fill="#BE1622" d="M437,131.8c0,4.5-0.7,8.3-2,11.4c-1.8,4.2-4.6,6.4-8.4,6.4c-2.5,0-4.7-1.2-6.6-3.5
			c-0.3,0.1-0.5,1.6-0.5,4.2c0,5.9,0.3,10.1,0.9,12.6c0,0.2,0.3,0.8,0.7,1.6c0.4,0.9,0.6,1.4,0.6,1.6c0,0.7-0.5,1.1-1.4,1.1
			c-1.1,0-1.9-0.2-2.3-0.5c-0.4-0.3-0.8-1.4-1.1-3.2c-0.3-1.5-0.4-2.7-0.4-3.6v-17.4c0-1.6,0.1-3.7,0.2-6.4c0.2-3.2,0.3-5.3,0.3-6.4
			c0-1.2,0-2.8,0-4.8c0-2.5,0-4.1,0-4.9c0-3.2,0.8-4.7,2.5-4.7c0.8,0,1.2,0.3,1.2,0.9c0,1.1-0.1,2.8-0.3,5c-0.2,2.2-0.3,3.8-0.3,4.9
			h0.3c1.1-1.4,2.1-2.9,3.2-4.3c1.2-1.6,2.8-2.4,4.6-2.4c3.1,0,5.4,1.4,6.9,4.1C436.4,125.8,437,128.5,437,131.8z M433.6,132.1
			c0-2.4-0.3-4.5-0.8-6.2c-0.8-2.6-2-3.8-3.8-3.8c-1.3,0-2.8,1.1-4.7,3.4c-1.6,2-2.7,4-3.4,6c-0.5,1.6-0.9,3.8-1.2,6.9
			c-0.2,2.2-0.3,3.2-0.3,3.2c0,0.1,0.2,0.4,0.6,0.7c0.3,0.2,0.5,0.4,0.8,0.6c0.7,1.1,1.5,2.1,2.2,3.2c0.7,1.1,1.9,1.6,3.4,1.6
			c2.5,0,4.4-2.1,5.7-6.2C433.1,138.4,433.6,135.3,433.6,132.1z"/>
		<path fill="#BE1622" d="M462.2,135.1c0,3.9-0.9,7.4-2.6,10.3c-2.1,3.5-4.9,5.3-8.6,5.3c-3.7,0-6.5-1.4-8.3-4.3
			c-1.5-2.4-2.3-5.5-2.3-9.5c0-3.9,0.9-7.7,2.6-11.4c2.2-4.6,5-6.9,8.4-6.9c0.9,0,2.1,0.5,3.7,1.5C459.8,123,462.2,128,462.2,135.1z
			 M458.9,135c0-2.9-0.4-5.6-1.2-7.9c-1.1-3.2-2.9-4.9-5.3-4.9c-2.7,0-4.9,1.8-6.4,5.4c-1.2,2.8-1.8,5.8-1.8,9
			c0,2.9,0.4,5.3,1.2,7.3c1.2,2.7,3,4,5.6,4c2.7,0,4.8-1.6,6.2-4.7C458.3,140.9,458.9,138.1,458.9,135z"/>
		<path fill="#BE1622" d="M485.7,141.8c0,2-1.3,3.8-4,5.4c-2.4,1.5-4.7,2.2-6.9,2.2c-6.1,0-9.2-3.9-9.2-11.6c0-3.4,0.6-7.1,1.9-11
			c1.6-5.1,3.7-7.7,6.3-7.7c2.2,0,4.6,1.1,7.2,3.3c2.6,2.2,3.9,4.4,3.9,6.6c0,2.8-1.1,5.3-3.4,7.4c-2.3,2.1-4.9,3.2-7.7,3.2
			c-0.3,0-0.9-0.2-1.7-0.7c-0.9-0.5-1.5-0.7-1.8-0.7c-0.6,0-0.9,0.2-0.9,0.5c0,5.3,1.7,7.9,5.2,7.9c1.8,0,3.4-0.6,4.9-1.8
			c0.9-0.7,1.9-1.8,3-3.2c0.9-1.1,1.4-1.7,1.7-1.7C485.1,139.9,485.7,140.5,485.7,141.8z M480.9,129.2c0-1.6-0.5-3.1-1.4-4.5
			c-0.9-1.4-2.1-2.1-3.6-2.1c-1.8,0-3.3,1.1-4.5,3.4c-1,1.9-1.4,3.9-1.4,6c0,1.3,0.4,2.4,1.3,3.3c0.8,0.9,1.9,1.3,3.3,1.3
			c1.9,0,3.4-0.8,4.7-2.4C480.4,132.8,480.9,131.1,480.9,129.2z"/>
		<path fill="#BE1622" d="M512.2,150.2c-1.2,0.9-2.1,1.4-2.7,1.4c-0.5,0-1.1-0.3-1.9-0.9c-0.8-0.6-1.6-1.3-2.5-2.2s-1.8-1.8-2.7-2.9
			c-0.9-1-1.7-2-2.5-2.9c-0.8-0.9-1.4-1.7-1.9-2.4c-0.5-0.7-0.9-1.1-1-1.2c-1.2-1.3-2.3-2.2-3.2-2.7c-0.6,0-1,0.4-1.1,1.2
			c-0.1,0.8-0.2,1.6-0.2,2.4c0,1,0,1.9,0,2.8c0,0.9,0,1.6,0.1,2.1c0,0.4,0.2,1,0.5,1.7c0.3,0.8,0.4,1.3,0.4,1.7
			c0,0.3-0.2,0.5-0.5,0.8c-0.3,0.3-0.7,0.4-1.2,0.4c-0.9,0-1.6-0.3-2.1-0.9c-0.5-0.6-0.7-1.7-0.7-3.3c0-2.8,0-5.2,0-7.2
			c0-2,0-3.8,0.1-5.3c0-1.5,0-2.8,0.1-3.9c0-1.1,0-2,0-2.8c0-0.5,0-0.9,0-1.2c0-0.3,0-0.6-0.1-0.9s-0.1-0.5-0.1-0.8
			c0-0.3-0.1-0.6-0.2-1c-0.1-0.6-0.2-1.1-0.2-1.6c0-0.5,0.4-0.9,1.1-1.4c0.7-0.5,1.3-0.7,1.9-0.7c0.4,0,0.9,0.1,1.3,0.4
			c0.5,0.3,0.7,0.6,0.7,0.9c0,0.1-0.1,0.7-0.4,1.7c-0.3,1-0.4,2.5-0.4,4.6c0,1.4,0,2.6-0.1,3.5c-0.1,0.9-0.1,1.5-0.1,1.7
			c0,0.2,0.1,0.3,0.3,0.3c0.5-0.4,1.2-0.9,2-1.5c0.8-0.7,1.7-1.4,2.7-2.3c1-0.9,2-1.9,3.1-2.9c1.1-1.1,2.1-2.1,3-3.2
			c1.2-1.4,2.2-2.4,3-3c0.8-0.6,1.3-0.9,1.5-0.9c0.6,0,1.2,0.2,1.6,0.7c0.4,0.5,0.6,1.1,0.6,1.8c0,0.4,0,0.6-0.1,0.8
			c-0.9,0.6-1.9,1.4-3.2,2.4c-1.3,1-2.8,2.3-4.5,3.7c-3.9,3.4-5.8,5.7-5.8,6.8c0,0.2,0.3,0.7,0.8,1.4c0.5,0.7,1.2,1.5,2,2.5
			c0.8,0.9,1.7,1.9,2.6,2.9c0.9,1,1.8,1.9,2.5,2.8c1.4,1.6,2.7,2.9,4,3.9c1.2,1,2.4,1.8,3.4,2.3c0.1,0.1,0.2,0.2,0.2,0.4
			C512.4,150,512.4,150.1,512.2,150.2z"/>
		<path fill="#BE1622" d="M535.6,122.3c-0.3,0.2-1.2,0.5-2.6,0.7c-0.4,0-0.9,0.1-1.5,0.1c-0.7,0-1.3,0.1-2,0.1
			c-0.7,0-1.2,0.1-1.7,0.1c-0.5,0-0.8,0.1-0.8,0.1c0,0.2-0.1,1.2-0.2,2.8c-0.1,1.6-0.1,4.4-0.1,8.3c0,2,0,3.6,0.1,4.9
			c0.1,1.3,0.2,2.5,0.3,3.5c0,0.2,0,0.5,0.1,1c0.1,0.4,0.1,0.9,0.2,1.4c0.1,0.5,0.2,1,0.2,1.4c0.1,0.4,0.1,0.8,0.1,1.1
			c0,0.4-0.2,0.7-0.7,1.1c-0.5,0.4-0.9,0.5-1.2,0.5c-0.9,0-1.6-0.9-2.2-2.8c-0.2-0.7-0.4-2-0.5-4c-0.2-2-0.2-4.6-0.2-7.9
			c0-3.2,0-5.7,0.1-7.4c0.1-1.7,0.2-2.9,0.2-3.5c-0.1,0-0.5,0-1.1,0c-0.7,0-1.4,0.1-2.3,0.2c-0.9,0.1-1.7,0.1-2.6,0.2
			c-0.9,0.1-1.5,0.2-2,0.2c-1.5,0.2-2.2-0.3-2.2-1.6c0-0.3,0.4-0.6,1.3-0.9c0.9-0.3,1.9-0.6,3.2-0.9c1.3-0.3,2.6-0.6,4.1-0.8
			c1.5-0.3,2.8-0.4,4-0.6c0.5,0,1.2-0.1,2-0.2c0.8-0.1,1.5-0.1,2.4-0.2c0.8,0,1.7-0.1,2.5-0.1c0.8,0,1.6-0.1,2.3-0.1
			c1.3,0,1.9,0.5,1.9,1.5C536.5,121.3,536.2,121.9,535.6,122.3z"/>
	</g>
</g>
</svg>
